RobotoAvar2-VANG-3-SQRD1.ufo
<glyph name="quotesingle" format="2">
  <advance width="400"/>
  <unicode hex="0027"/>
  <outline>
    <contour>
      <point x="112.37408521258168" y="966.0" type="line"/>
      <point x="68.8217313463849" y="1320.0" type="line"/>
      <point x="61.69427336389123" y="1456.0" type="line"/>
      <point x="261.6942733638912" y="1456.0" type="line"/>
      <point x="268.8217313463849" y="1320.0" type="line"/>
      <point x="262.3740852125817" y="966.0" type="line"/>
    </contour>
  </outline>
</glyph>
<glyph name="one" format="2">
  <advance width="1156"/>
  <unicode hex="0031"/>
  <outline>
    <contour>
      <point x="578.0" y="0.0" type="line"/>
      <point x="512.7523147926131" y="1245.0" type="line"/>
      <point x="152.8755205814845" y="1090.0" type="line"/>
      <point x="143.12767363483874" y="1276.0" type="line"/>
      <point x="662.6461177782304" y="1476.0" type="line"/>
      <point x="692.6461177782304" y="1476.0" type="line"/>
      <point x="770.0" y="0.0" type="line"/>
    </contour>
  </outline>
</glyph>
<glyph name="C" format="2">
  <advance width="1359"/>
  <unicode hex="0043"/>
  <anchor x="748.0" y="0" name="bottom"/>
  <anchor x="681.6942733638912" y="1456" name="top"/>
  <outline>
    <contour>
      <point x="117.25789452896552" y="682.0" type="qcurve" smooth="yes"/>
      <point x="112.43637883492569" y="774.0" type="line" smooth="yes"/>
      <point x="94.82736499582367" y="1110.0"/>
      <point x="420.12203998539997" y="1486.0"/>
      <point x="680.1220399854" y="1486.0" type="qcurve" smooth="yes"/>
      <point x="940.1220399854" y="1486.0"/>
      <point x="1250.0582570810668" y="1201.0"/>
      <point x="1260.5922207169583" y="1000.0" type="qcurve" smooth="yes"/>
      <point x="1261.1162985097887" y="990.0" type="line"/>
      <point x="1069.1162985097887" y="990.0" type="line"/>
      <point x="1068.5922207169583" y="1000.0" type="line" smooth="yes"/>
      <point x="1061.3075393966155" y="1139.0"/>
      <point x="871.7169157878188" y="1322.0"/>
      <point x="688.7169157878188" y="1322.0" type="qcurve" smooth="yes"/>
      <point x="509.71691578781883" y="1322.0"/>
      <point x="291.8670161942401" y="1052.0"/>
      <point x="306.4363788349257" y="774.0" type="qcurve" smooth="yes"/>
      <point x="311.25789452896555" y="682.0" type="line" smooth="yes"/>
      <point x="324.67428602542424" y="426.0"/>
      <point x="570.9773575760724" y="134.0"/>
      <point x="750.9773575760724" y="134.0" type="qcurve" smooth="yes"/>
      <point x="922.9773575760724" y="134.0"/>
      <point x="1089.2295106294266" y="320.0"/>
      <point x="1096.1020526469329" y="456.0" type="qcurve" smooth="yes"/>
      <point x="1096.5779748541026" y="466.0" type="line"/>
      <point x="1288.5779748541026" y="466.0" type="line"/>
      <point x="1288.1020526469329" y="456.0" type="line" smooth="yes"/>
      <point x="1278.5836085035412" y="256.0"/>
      <point x="1019.5722333784912" y="-30.0"/>
      <point x="759.5722333784912" y="-30.0" type="qcurve" smooth="yes"/>
      <point x="499.57223337849126" y="-30.0"/>
      <point x="134.86690836806756" y="346.0"/>
    </contour>
  </outline>
</glyph>
<glyph name="N" format="2">
  <advance width="1460"/>
  <unicode hex="004E"/>
  <anchor x="768.0" y="0" name="bottom"/>
  <anchor x="691.6942733638912" y="1456" name="top"/>
  <anchor x="1235.0" y="0" name="engtail"/>
  <outline>
    <contour>
      <point x="208.0" y="0.0" type="line"/>
      <point x="131.69427336389123" y="1456.0" type="line"/>
      <point x="331.6942733638912" y="1456.0" type="line"/>
      <point x="1044.1502082325937" y="436.0" type="line" smooth="yes"/>
      <point x="1065.722441611085" y="406.0"/>
      <point x="1103.8669083680675" y="346.0"/>
      <point x="1117.1771028501437" y="321.0" type="qcurve"/>
      <point x="1125.1771028501437" y="321.0" type="line"/>
      <point x="1122.6048694716524" y="351.0"/>
      <point x="1117.6742860254242" y="426.0"/>
      <point x="1116.1020526469329" y="456.0" type="qcurve" smooth="yes"/>
      <point x="1063.6942733638912" y="1456.0" type="line"/>
      <point x="1251.6942733638912" y="1456.0" type="line"/>
      <point x="1328.0" y="0.0" type="line"/>
      <point x="1128.0" y="0.0" type="line"/>
      <point x="415.54406513129743" y="1020.0" type="line" smooth="yes"/>
      <point x="393.97183175280617" y="1050.0"/>
      <point x="356.82736499582364" y="1110.0"/>
      <point x="341.5171705137476" y="1135.0" type="qcurve"/>
      <point x="334.5171705137476" y="1135.0" type="line"/>
      <point x="337.08940389223886" y="1105.0"/>
      <point x="342.019987338467" y="1030.0"/>
      <point x="343.59222071695825" y="1000.0" type="qcurve" smooth="yes"/>
      <point x="396.0" y="0.0" type="line"/>
    </contour>
  </outline>
</glyph>
<glyph name="P" format="2">
  <advance width="1200"/>
  <unicode hex="0050"/>
  <anchor x="638.0" y="0" name="bottom"/>
  <anchor x="561.6942733638912" y="1456" name="top"/>
  <outline>
    <contour>
      <point x="208.0" y="0.0" type="line"/>
      <point x="131.69427336389123" y="1456.0" type="line"/>
      <point x="613.6942733638912" y="1456.0" type="line" smooth="yes"/>
      <point x="853.6942733638912" y="1456.0"/>
      <point x="1124.3245481711042" y="1215.0"/>
      <point x="1134.8061040277125" y="1015.0" type="qcurve" smooth="yes"/>
      <point x="1145.2876598843209" y="815.0"/>
      <point x="900.1275658086662" y="570.0"/>
      <point x="660.1275658086662" y="570.0" type="qcurve" smooth="yes"/>
      <point x="280.1275658086662" y="570.0" type="line"/>
      <point x="271.8471366819456" y="728.0" type="line"/>
      <point x="651.8471366819456" y="728.0" type="line" smooth="yes"/>
      <point x="821.8471366819456" y="728.0"/>
      <point x="949.0950375416776" y="895.0"/>
      <point x="942.8061040277126" y="1015.0" type="qcurve" smooth="yes"/>
      <point x="936.5171705137476" y="1135.0"/>
      <point x="791.9747024906118" y="1298.0"/>
      <point x="621.9747024906118" y="1298.0" type="qcurve" smooth="yes"/>
      <point x="331.97470249061183" y="1298.0" type="line"/>
      <point x="400.0" y="0.0" type="line"/>
    </contour>
  </outline>
</glyph>
<glyph name="S" format="2">
  <advance width="1220"/>
  <unicode hex="0053"/>
  <anchor x="648.0" y="0" name="bottom"/>
  <anchor x="571.6942733638912" y="1456" name="top"/>
  <outline>
    <contour>
      <point x="107.14170384534938" y="398.0" type="qcurve" smooth="yes"/>
      <point x="106.51281049395288" y="410.0" type="line"/>
      <point x="298.5128104939529" y="410.0" type="line"/>
      <point x="299.1417038453494" y="398.0" type="line" smooth="yes"/>
      <point x="306.0595307107109" y="266.0"/>
      <point x="490.9773575760724" y="134.0"/>
      <point x="650.9773575760724" y="134.0" type="qcurve" smooth="yes"/>
      <point x="810.9773575760724" y="134.0"/>
      <point x="973.8498995935787" y="270.0"/>
      <point x="968.0850438724441" y="380.0" type="qcurve" smooth="yes"/>
      <point x="962.8442659441399" y="480.0"/>
      <point x="791.555332430175" y="600.0"/>
      <point x="559.0964189974942" y="666.0" type="qcurve" smooth="yes"/>
      <point x="317.48028222696433" y="735.0"/>
      <point x="109.7848430596016" y="920.0"/>
      <point x="100.8755205814845" y="1090.0" type="qcurve" smooth="yes"/>
      <point x="91.9661981033674" y="1260.0"/>
      <point x="340.12203998539997" y="1486.0"/>
      <point x="570.1220399854" y="1486.0" type="qcurve" smooth="yes"/>
      <point x="800.1220399854" y="1486.0"/>
      <point x="1084.5950914547639" y="1248.0"/>
      <point x="1094.2381228428435" y="1064.0" type="qcurve" smooth="yes"/>
      <point x="1094.86701619424" y="1052.0" type="line"/>
      <point x="902.8670161942401" y="1052.0" type="line"/>
      <point x="902.2381228428436" y="1064.0" type="line" smooth="yes"/>
      <point x="896.1588204460107" y="1180.0"/>
      <point x="732.7169157878188" y="1322.0"/>
      <point x="578.7169157878188" y="1322.0" type="qcurve" smooth="yes"/>
      <point x="424.71691578781883" y="1322.0"/>
      <point x="285.1106648603499" y="1200.0"/>
      <point x="290.6134816850693" y="1095.0" type="qcurve" smooth="yes"/>
      <point x="295.59222071695825" y="1000.0"/>
      <point x="451.35707643809286" y="890.0"/>
      <point x="688.8159898707736" y="824.0" type="qcurve" smooth="yes"/>
      <point x="926.2749033034544" y="758.0"/>
      <point x="1148.6516436014965" y="560.0"/>
      <point x="1158.0850438724442" y="380.0" type="qcurve" smooth="yes"/>
      <point x="1167.5184441433917" y="200.0"/>
      <point x="899.5722333784912" y="-30.0"/>
      <point x="659.5722333784912" y="-30.0" type="qcurve" smooth="yes"/>
      <point x="419.57223337849126" y="-30.0"/>
      <point x="117.51844414339165" y="200.0"/>
    </contour>
  </outline>
</glyph>
<glyph name="V" format="2">
  <advance width="1260"/>
  <unicode hex="0056"/>
  <anchor x="668.0" y="0" name="bottom"/>
  <anchor x="591.6942733638912" y="1456" name="top"/>
  <outline>
    <contour>
      <point x="-38.30572663610877" y="1456.0" type="line"/>
      <point x="165.69427336389123" y="1456.0" type="line"/>
      <point x="608.1898594310102" y="378.0" type="line" smooth="yes"/>
      <point x="621.9193161473506" y="345.0"/>
      <point x="640.5921128907858" y="294.0"/>
      <point x="651.164346269277" y="264.0" type="qcurve"/>
      <point x="660.164346269277" y="264.0" type="line"/>
      <point x="667.5921128907858" y="294.0"/>
      <point x="681.9193161473506" y="345.0"/>
      <point x="692.1898594310102" y="378.0" type="qcurve" smooth="yes"/>
      <point x="1025.6942733638912" y="1456.0" type="line"/>
      <point x="1221.6942733638912" y="1456.0" type="line"/>
      <point x="754.5240777928304" y="-10.0" type="line"/>
      <point x="582.5240777928304" y="-10.0" type="line"/>
    </contour>
  </outline>
</glyph>
<glyph name="X" format="2">
  <advance width="1222"/>
  <unicode hex="0058"/>
  <anchor x="649.0" y="0" name="bottom"/>
  <anchor x="572.6942733638912" y="1456" name="top"/>
  <anchor x="1035.0" y="0" name="cy_descender"/>
  <outline>
    <contour>
      <point x="63.0" y="0.0" type="line"/>
      <point x="544.7593298978684" y="806.0" type="line"/>
      <point x="558.7593298978684" y="806.0" type="line"/>
      <point x="921.6942733638912" y="1456.0" type="line"/>
      <point x="1133.6942733638912" y="1456.0" type="line"/>
      <point x="675.886787880362" y="670.0" type="line"/>
      <point x="661.886787880362" y="670.0" type="line"/>
      <point x="275.0" y="0.0" type="line"/>
    </contour>
    <contour>
      <point x="11.694273363891227" y="1456.0" type="line"/>
      <point x="227.69427336389123" y="1456.0" type="line"/>
      <point x="658.7593298978684" y="806.0" type="line"/>
      <point x="668.7593298978684" y="806.0" type="line"/>
      <point x="1235.0" y="0.0" type="line"/>
      <point x="1019.0" y="0.0" type="line"/>
      <point x="561.886787880362" y="670.0" type="line"/>
      <point x="551.886787880362" y="670.0" type="line"/>
    </contour>
  </outline>
</glyph>
<glyph name="bracketright" format="2">
  <advance width="700"/>
  <unicode hex="005D"/>
  <outline>
    <contour>
      <point x="610.246411577743" y="-310.0" type="line"/>
      <point x="134.24641157774295" y="-310.0" type="line"/>
      <point x="125.86116689245627" y="-150.0" type="line"/>
      <point x="416.86116689245625" y="-150.0" type="line"/>
      <point x="341.07951804917786" y="1296.0" type="line"/>
      <point x="50.07951804917789" y="1296.0" type="line"/>
      <point x="41.69427336389123" y="1456.0" type="line"/>
      <point x="517.6942733638912" y="1456.0" type="line"/>
    </contour>
  </outline>
</glyph>
<glyph name="e" format="2">
  <advance width="1088"/>
  <unicode hex="0065"/>
  <anchor x="628.0" y="0" name="bottom"/>
  <anchor x="809.0" y="0" name="ogonek"/>
  <anchor x="542.86701619424" y="1052" name="top"/>
  <outline>
    <contour>
      <point x="96.27203256564871" y="510.0" type="qcurve" smooth="yes"/>
      <point x="94.59498362859138" y="542.0" type="line" smooth="yes"/>
      <point x="82.12193215922744" y="780.0"/>
      <point x="327.2947828157488" y="1082.0"/>
      <point x="542.2947828157488" y="1082.0" type="qcurve" smooth="yes"/>
      <point x="757.2947828157488" y="1082.0"/>
      <point x="1004.0737765735666" y="800.0"/>
      <point x="1016.6516436014966" y="560.0" type="qcurve" smooth="yes"/>
      <point x="1020.6346348270077" y="484.0" type="line"/>
      <point x="211.6346348270078" y="484.0" type="line"/>
      <point x="203.87828349311764" y="632.0" type="line"/>
      <point x="825.8782834931176" y="632.0" type="line"/>
      <point x="824.6204967903246" y="656.0" type="line" smooth="yes"/>
      <point x="818.6460099520579" y="770.0"/>
      <point x="680.2607652667712" y="930.0"/>
      <point x="558.2607652667712" y="930.0" type="qcurve" smooth="yes"/>
      <point x="410.26076526677116" y="930.0"/>
      <point x="276.0525156054556" y="705.0"/>
      <point x="284.59498362859136" y="542.0" type="qcurve" smooth="yes"/>
      <point x="286.2720325656487" y="510.0" type="line" smooth="yes"/>
      <point x="294.81450058878454" y="347.0"/>
      <point x="460.6062509274689" y="122.0"/>
      <point x="622.6062509274689" y="122.0" type="qcurve" smooth="yes"/>
      <point x="722.6062509274689" y="122.0"/>
      <point x="861.9943663505612" y="210.0"/>
      <point x="903.8498995935787" y="270.0" type="qcurve"/>
      <point x="1028.8286386254676" y="175.0" type="line"/>
      <point x="982.7592220716958" y="100.0"/>
      <point x="780.5722333784912" y="-30.0"/>
      <point x="630.5722333784912" y="-30.0" type="qcurve" smooth="yes"/>
      <point x="385.57223337849126" y="-30.0"/>
      <point x="108.74508403501264" y="272.0"/>
    </contour>
  </outline>
</glyph>
<glyph name="k" format="2">
  <advance width="1028"/>
  <unicode hex="006B"/>
  <anchor x="552.0" y="0" name="bottom"/>
  <anchor x="471.5016510212479" y="1536" name="top"/>
  <outline>
    <contour>
      <point x="186.0" y="0.0" type="line"/>
      <point x="105.50165102124788" y="1536.0" type="line"/>
      <point x="291.5016510212479" y="1536.0" type="line"/>
      <point x="372.0" y="0.0" type="line"/>
    </contour>
    <contour>
      <point x="864.0" y="0.0" type="line"/>
      <point x="425.4901680700253" y="544.0" type="line"/>
      <point x="534.7819723217959" y="672.0" type="line"/>
      <point x="1082.0" y="0.0" type="line"/>
    </contour>
    <contour>
      <point x="265.4787929449752" y="258.0" type="line"/>
      <point x="254.05389706127212" y="476.0" type="line"/>
      <point x="766.8670161942401" y="1052.0" type="line"/>
      <point x="977.8670161942401" y="1052.0" type="line"/>
    </contour>
  </outline>
</glyph>
<glyph name="r" format="2">
  <advance width="700"/>
  <unicode hex="0072"/>
  <anchor x="388.0" y="0" name="bottom"/>
  <anchor x="399.8670161942401" y="1052" name="top"/>
  <outline>
    <contour>
      <point x="186.0" y="0.0" type="line"/>
      <point x="130.86701619424008" y="1052.0" type="line"/>
      <point x="298.8670161942401" y="1052.0" type="line"/>
      <point x="333.2182433305491" y="740.0" type="line"/>
      <point x="372.0" y="0.0" type="line"/>
    </contour>
    <contour>
      <point x="250.80461474572354" y="538.0" type="qcurve"/>
      <point x="240.9519522405117" y="726.0" type="line"/>
      <point x="313.9505707846951" y="955.0"/>
      <point x="477.2947828157488" y="1082.0"/>
      <point x="571.2947828157488" y="1082.0" type="qcurve" smooth="yes"/>
      <point x="593.2947828157488" y="1082.0"/>
      <point x="641.8188606085793" y="1072.0"/>
      <point x="652.0284917257114" y="1068.0" type="qcurve"/>
      <point x="661.0426297623947" y="896.0" type="line"/>
      <point x="640.8329986452625" y="900.0"/>
      <point x="596.6233675281303" y="904.0"/>
      <point x="570.6233675281303" y="904.0" type="qcurve" smooth="yes"/>
      <point x="471.62336752813025" y="904.0"/>
      <point x="330.1219321592274" y="780.0"/>
    </contour>
  </outline>
</glyph>
<glyph name="u" format="2">
  <advance width="1138"/>
  <unicode hex="0075"/>
  <anchor x="607.0" y="0" name="bottom"/>
  <anchor x="1018.0" y="0" name="ogonek"/>
  <anchor x="551.8670161942401" y="1052" name="top"/>
  <anchor x="885.8670161942401" y="1052" name="topright"/>
  <anchor x="937.0" y="0" name="cy_descender"/>
  <outline>
    <contour>
      <point x="525.0481555856609" y="-20.0" type="qcurve" smooth="yes"/>
      <point x="366.0481555856608" y="-20.0"/>
      <point x="167.5623475354303" y="161.0"/>
      <point x="156.45189832742543" y="373.0" type="qcurve" smooth="yes"/>
      <point x="120.86701619424008" y="1052.0" type="line"/>
      <point x="306.8670161942401" y="1052.0" type="line"/>
      <point x="342.5567138859915" y="371.0" type="line" smooth="yes"/>
      <point x="349.1600940756548" y="245.0"/>
      <point x="467.8725420175063" y="136.0"/>
      <point x="571.8725420175064" y="136.0" type="qcurve" smooth="yes"/>
      <point x="660.8725420175064" y="136.0"/>
      <point x="795.5793563099191" y="237.0"/>
      <point x="911.3074315704429" y="433.0" type="qcurve"/>
      <point x="924.3739773864091" y="260.0" type="line"/>
      <point x="824.6501543195076" y="83.0"/>
      <point x="625.0481555856609" y="-20.0"/>
    </contour>
    <contour>
      <point x="860.0" y="0.0" type="line"/>
      <point x="826.0680350979553" y="304.0" type="line"/>
      <point x="786.8670161942401" y="1052.0" type="line"/>
      <point x="972.8670161942401" y="1052.0" type="line"/>
      <point x="1028.0" y="0.0" type="line"/>
    </contour>
  </outline>
</glyph>
<glyph name="w" format="2">
  <advance width="1546"/>
  <unicode hex="0077"/>
  <anchor x="811.0" y="0" name="bottom"/>
  <anchor x="755.8670161942401" y="1052" name="top"/>
  <outline>
    <contour>
      <point x="7.867016194240087" y="1052.0" type="line"/>
      <point x="187.86701619424008" y="1052.0" type="line"/>
      <point x="418.13319945810497" y="360.0" type="line" smooth="yes"/>
      <point x="431.2295106294266" y="320.0"/>
      <point x="446.84989959357875" y="270.0"/>
      <point x="456.9462107649004" y="230.0" type="qcurve"/>
      <point x="462.9462107649004" y="230.0" type="line"/>
      <point x="468.84989959357875" y="270.0"/>
      <point x="479.2295106294266" y="320.0"/>
      <point x="490.13319945810497" y="360.0" type="qcurve" smooth="yes"/>
      <point x="682.8670161942401" y="1052.0" type="line"/>
      <point x="838.8670161942401" y="1052.0" type="line"/>
      <point x="1111.133199458105" y="360.0" type="line" smooth="yes"/>
      <point x="1127.2295106294266" y="320.0"/>
      <point x="1142.8498995935788" y="270.0"/>
      <point x="1152.9462107649003" y="230.0" type="qcurve"/>
      <point x="1158.9462107649003" y="230.0" type="line"/>
      <point x="1164.8498995935788" y="270.0"/>
      <point x="1173.2295106294266" y="320.0"/>
      <point x="1182.133199458105" y="360.0" type="qcurve" smooth="yes"/>
      <point x="1333.86701619424" y="1052.0" type="line"/>
      <point x="1503.86701619424" y="1052.0" type="line"/>
      <point x="1234.0" y="0.0" type="line"/>
      <point x="1089.0" y="0.0" type="line"/>
      <point x="824.3627100875316" y="680.0" type="line" smooth="yes"/>
      <point x="809.2663989162099" y="720.0"/>
      <point x="782.0737765735666" y="800.0"/>
      <point x="769.9774654022449" y="840.0" type="qcurve"/>
      <point x="763.9774654022449" y="840.0" type="line"/>
      <point x="756.0737765735666" y="800.0"/>
      <point x="737.2663989162099" y="720.0"/>
      <point x="726.3627100875316" y="680.0" type="qcurve" smooth="yes"/>
      <point x="533.0" y="0.0" type="line"/>
      <point x="388.0" y="0.0" type="line"/>
    </contour>
  </outline>
</glyph>
<glyph name="exclamdown" format="2">
  <advance width="620"/>
  <unicode hex="00A1"/>
  <outline>
    <contour>
      <point x="416.81460841495704" y="1053.0" type="qcurve" smooth="yes"/>
      <point x="419.3825895998261" y="1004.0"/>
      <point x="359.051134149639" y="934.0"/>
      <point x="299.051134149639" y="934.0" type="qcurve" smooth="yes"/>
      <point x="239.051134149639" y="934.0"/>
      <point x="171.38258959982608" y="1004.0"/>
      <point x="168.81460841495704" y="1053.0" type="qcurve" smooth="yes"/>
      <point x="166.246627230088" y="1102.0"/>
      <point x="226.5780826802751" y="1172.0"/>
      <point x="286.5780826802751" y="1172.0" type="qcurve" smooth="yes"/>
      <point x="346.5780826802751" y="1172.0"/>
      <point x="414.246627230088" y="1102.0"/>
    </contour>
    <contour>
      <point x="391.2182433305491" y="740.0" type="line"/>
      <point x="461.03678046061077" y="-306.0" type="line"/>
      <point x="267.03678046061077" y="-306.0" type="line"/>
      <point x="227.21824333054911" y="740.0" type="line"/>
    </contour>
  </outline>
</glyph>
<glyph name="twosuperior" format="2">
  <advance width="751"/>
  <unicode hex="00B2"/>
  <outline>
    <contour>
      <point x="86.4717778397199" y="697.0" type="line"/>
      <point x="80.8117376771514" y="805.0" type="line"/>
      <point x="355.02849172571143" y="1068.0" type="line" smooth="yes"/>
      <point x="418.7792094101628" y="1130.0"/>
      <point x="449.27214039182127" y="1216.0"/>
      <point x="447.5426836754809" y="1249.0" type="qcurve" smooth="yes"/>
      <point x="445.0271102698949" y="1297.0"/>
      <point x="390.40672130574274" y="1347.0"/>
      <point x="331.40672130574274" y="1347.0" type="qcurve" smooth="yes"/>
      <point x="266.40672130574274" y="1347.0"/>
      <point x="209.76081917985744" y="1283.0"/>
      <point x="213.69140262608556" y="1208.0" type="qcurve" smooth="yes"/>
      <point x="214.215480418916" y="1198.0" type="line"/>
      <point x="52.21548041891599" y="1198.0" type="line"/>
      <point x="51.691402626085576" y="1208.0" type="line" smooth="yes"/>
      <point x="44.8259835400071" y="1339.0"/>
      <point x="184.06963220611692" y="1487.0"/>
      <point x="326.0696322061169" y="1487.0" type="qcurve" smooth="yes"/>
      <point x="460.0696322061169" y="1487.0"/>
      <point x="618.7778279543463" y="1359.0"/>
      <point x="624.4378681169147" y="1251.0" type="qcurve" smooth="yes"/>
      <point x="628.6304904595581" y="1171.0"/>
      <point x="539.0766473113722" y="1048.0"/>
      <point x="455.11204631616647" y="971.0" type="qcurve" smooth="yes"/>
      <point x="316.7154265058297" y="845.0" type="line"/>
      <point x="676.7154265058298" y="845.0" type="line"/>
      <point x="684.47177783972" y="697.0" type="line"/>
    </contour>
  </outline>
</glyph>
<glyph name="AE" format="2">
  <advance width="1914"/>
  <unicode hex="00C6"/>
  <anchor x="954.6942733638912" y="1456" name="top"/>
  <outline>
    <contour>
      <point x="23.0" y="0.0" type="line"/>
      <point x="827.6942733638912" y="1456.0" type="line"/>
      <point x="1797.6942733638912" y="1456.0" type="line"/>
      <point x="1805.974702490612" y="1298.0" type="line"/>
      <point x="1091.974702490612" y="1298.0" type="line"/>
      <point x="1151.7195708732795" y="158.0" type="line"/>
      <point x="1875.7195708732795" y="158.0" type="line"/>
      <point x="1884.0" y="0.0" type="line"/>
      <point x="968.0" y="0.0" type="line"/>
      <point x="903.1191692475943" y="1238.0" type="line"/>
      <point x="250.0" y="0.0" type="line"/>
    </contour>
    <contour>
      <point x="1034.7819723217958" y="672.0" type="line"/>
      <point x="1026.5015431950753" y="830.0" type="line"/>
      <point x="1738.5015431950753" y="830.0" type="line"/>
      <point x="1746.781972321796" y="672.0" type="line"/>
    </contour>
    <contour>
      <point x="321.5000539130863" y="353.0" type="line"/>
      <point x="412.328692538554" y="528.0" type="line"/>
      <point x="1045.328692538554" y="528.0" type="line"/>
      <point x="1054.5000539130863" y="353.0" type="line"/>
    </contour>
  </outline>
</glyph>
<glyph name="germandbls" format="2">
  <advance width="1186"/>
  <unicode hex="00DF"/>
  <outline>
    <contour>
      <point x="312.77070502291843" y="1092.0" type="qcurve" name="hr00"/>
      <point x="370.0" y="0.0" type="line"/>
      <point x="186.0" y="0.0" type="line"/>
      <point x="128.7707050229184" y="1092.0" type="line" smooth="yes"/>
      <point x="118.13192582846094" y="1295.0"/>
      <point x="313.60646657981397" y="1534.0"/>
      <point x="512.606466579814" y="1534.0" type="qcurve" smooth="yes"/>
      <point x="676.606466579814" y="1534.0"/>
      <point x="883.6730123957802" y="1361.0"/>
      <point x="891.3245481711043" y="1215.0" type="qcurve" smooth="yes"/>
      <point x="895.936432748012" y="1127.0"/>
      <point x="851.7536962484296" y="1016.0"/>
      <point x="817.0072307576004" y="973.0" type="qcurve" smooth="yes"/>
      <point x="786.9987263703559" y="935.0"/>
      <point x="731.9817175958672" y="859.0"/>
      <point x="733.5015431950753" y="830.0" type="qcurve" smooth="yes"/>
      <point x="736.0171166006613" y="782.0"/>
      <point x="874.3103023082485" y="681.0"/>
      <point x="958.5595846237972" y="619.0" type="qcurve" smooth="yes"/>
      <point x="1039.6516436014967" y="560.0"/>
      <point x="1154.46040271467" y="411.0"/>
      <point x="1161.2210062421823" y="282.0" type="qcurve" smooth="yes"/>
      <point x="1167.7719786525624" y="157.0"/>
      <point x="959.0481555856609" y="-20.0"/>
      <point x="792.0481555856609" y="-20.0" type="qcurve" smooth="yes"/>
      <point x="628.0481555856609" y="-20.0"/>
      <point x="423.2393964724876" y="129.0"/>
      <point x="415.4306373593144" y="278.0" type="qcurve" smooth="yes"/>
      <point x="414.0680350979553" y="304.0" type="line"/>
      <point x="577.0680350979553" y="304.0" type="line"/>
      <point x="577.5397051115027" y="295.0" type="line" smooth="yes"/>
      <point x="581.9419585712782" y="211.0"/>
      <point x="691.1345809139216" y="131.0"/>
      <point x="786.1345809139216" y="131.0" type="qcurve" smooth="yes"/>
      <point x="887.1345809139216" y="131.0"/>
      <point x="989.5751041162969" y="218.0"/>
      <point x="985.1728506565214" y="302.0" type="qcurve" smooth="yes"/>
      <point x="981.5567138859915" y="371.0"/>
      <point x="877.5779748541025" y="466.0"/>
      <point x="818.1672170070826" y="512.0" type="qcurve" smooth="yes"/>
      <point x="743.1799735879492" y="569.0"/>
      <point x="564.0001078261726" y="706.0"/>
      <point x="559.2309999114158" y="797.0" type="qcurve" smooth="yes"/>
      <point x="555.3528242444706" y="871.0"/>
      <point x="632.535560744053" y="982.0"/>
      <point x="662.2296184555992" y="1026.0" type="qcurve" smooth="yes"/>
      <point x="689.1333072842775" y="1066.0"/>
      <point x="719.783461603785" y="1149.0"/>
      <point x="716.9010337432178" y="1204.0" type="qcurve" smooth="yes"/>
      <point x="712.236741387027" y="1293.0"/>
      <point x="598.5200412515533" y="1383.0"/>
      <point x="516.5200412515533" y="1383.0" type="qcurve" smooth="yes"/>
      <point x="413.52004125155327" y="1383.0"/>
      <point x="304.96194590974517" y="1241.0"/>
    </contour>
  </outline>
</glyph>
<glyph name="OE" format="2">
  <advance width="1879"/>
  <unicode hex="0152"/>
  <outline>
    <contour>
      <point x="711.1005633649439" y="-21.0" type="qcurve" smooth="yes"/>
      <point x="497.10056336494387" y="-21.0"/>
      <point x="135.1813550437658" y="340.0"/>
      <point x="117.25789452896552" y="682.0" type="qcurve" smooth="yes"/>
      <point x="112.54119439349176" y="772.0" type="line" smooth="yes"/>
      <point x="95.08940389223886" y="1105.0"/>
      <point x="415.59370999894736" y="1477.0"/>
      <point x="673.5937099989474" y="1477.0" type="qcurve" smooth="yes"/>
      <point x="706.5937099989474" y="1477.0"/>
      <point x="858.2750111296269" y="1464.0"/>
      <point x="925.6942733638912" y="1456.0" type="qcurve"/>
      <point x="1762.6942733638912" y="1456.0" type="line"/>
      <point x="1770.974702490612" y="1298.0" type="line"/>
      <point x="1048.974702490612" y="1298.0" type="line"/>
      <point x="1108.7719786525624" y="157.0" type="line"/>
      <point x="1840.7719786525624" y="157.0" type="line"/>
      <point x="1849.0" y="0.0" type="line"/>
      <point x="1002.0" y="0.0" type="line"/>
      <point x="935.3668544549813" y="-7.0"/>
      <point x="787.1005633649439" y="-21.0"/>
    </contour>
    <contour>
      <point x="746.2918042517706" y="128.0" type="qcurve" smooth="yes"/>
      <point x="799.2918042517706" y="128.0"/>
      <point x="878.8201342382233" y="137.0"/>
      <point x="916.505687562525" y="143.0" type="qcurve"/>
      <point x="855.3458091392154" y="1310.0" type="line"/>
      <point x="802.978954684234" y="1317.0"/>
      <point x="707.5596924499697" y="1325.0"/>
      <point x="685.5596924499697" y="1325.0" type="qcurve" smooth="yes"/>
      <point x="508.5596924499697" y="1325.0"/>
      <point x="294.019987338467" y="1030.0"/>
      <point x="307.4363788349257" y="774.0" type="qcurve" smooth="yes"/>
      <point x="312.25789452896555" y="682.0" type="line" smooth="yes"/>
      <point x="326.09354825968853" y="418.0"/>
      <point x="574.2918042517706" y="128.0"/>
    </contour>
    <contour>
      <point x="991.7295645425129" y="673.0" type="line"/>
      <point x="983.5015431950753" y="830.0" type="line"/>
      <point x="1703.5015431950753" y="830.0" type="line"/>
      <point x="1711.729564542513" y="673.0" type="line"/>
    </contour>
  </outline>
</glyph>
<glyph name="primemod" format="2">
  <advance width="600"/>
  <unicode hex="02B9"/>
  <outline>
    <contour>
      <point x="183.28351551687132" y="1502.0" type="line"/>
      <point x="372.2835155168713" y="1502.0" type="line"/>
      <point x="280.06389073050565" y="991.0" type="line"/>
      <point x="157.80185183409043" y="996.0" type="line"/>
    </contour>
  </outline>
</glyph>
<glyph name="circumflexcomb" format="2">
  <unicode hex="0302"/>
  <anchor x="-17.132983805759913" y="1052" name="_top"/>
  <anchor x="-42.34112564090299" y="1533" name="top"/>
  <outline>
    <contour>
      <point x="13.658874359097013" y="1533.0" type="line"/>
      <point x="277.0625092746891" y="1220.0" type="line"/>
      <point x="124.06250927468906" y="1220.0" type="line"/>
      <point x="-34.27032763131457" y="1379.0" type="line"/>
      <point x="-175.93749072531094" y="1220.0" type="line"/>
      <point x="-328.9374907253109" y="1220.0" type="line"/>
      <point x="-98.34112564090299" y="1533.0" type="line"/>
    </contour>
  </outline>
</glyph>
<glyph name="beta" format="2">
  <advance width="1190"/>
  <unicode hex="03B2"/>
  <outline>
    <contour>
      <point x="207.80163618174538" y="-416.0" type="line"/>
      <point x="130.55256951854184" y="1058.0" type="line" smooth="yes"/>
      <point x="117.29340135993228" y="1311.0"/>
      <point x="353.45349543558706" y="1556.0"/>
      <point x="551.453495435587" y="1556.0" type="qcurve" smooth="yes"/>
      <point x="754.453495435587" y="1556.0"/>
      <point x="981.2494979678936" y="1350.0"/>
      <point x="991.4690149280868" y="1155.0" type="qcurve"/>
      <point x="998.2296184555992" y="1026.0"/>
      <point x="866.9817175958672" y="859.0"/>
      <point x="764.2919120779432" y="834.0" type="qcurve"/>
      <point x="763.4533876094146" y="850.0" type="line"/>
      <point x="917.5015431950753" y="830.0"/>
      <point x="1109.9830990516837" y="630.0"/>
      <point x="1118.7351981919517" y="463.0" type="qcurve" smooth="yes"/>
      <point x="1130.2649096342209" y="243.0"/>
      <point x="874.1005633649439" y="-21.0"/>
      <point x="685.1005633649439" y="-21.0" type="qcurve" smooth="yes"/>
      <point x="537.1005633649438" y="-21.0"/>
      <point x="325.2960564453929" y="147.0"/>
      <point x="262.6884240621074" y="254.0" type="qcurve"/>
      <point x="250.2677803720265" y="491.0" type="line"/>
      <point x="331.8059962015401" y="309.0"/>
      <point x="519.0821731346384" y="132.0"/>
      <point x="664.0821731346385" y="132.0" type="qcurve" smooth="yes"/>
      <point x="799.0821731346385" y="132.0"/>
      <point x="937.4391417465588" y="316.0"/>
      <point x="929.7876059712347" y="462.0" type="qcurve" smooth="yes"/>
      <point x="922.0312546373445" y="610.0"/>
      <point x="760.9080488484731" y="765.0"/>
      <point x="567.9080488484731" y="765.0" type="qcurve" smooth="yes"/>
      <point x="469.9080488484731" y="765.0" type="line"/>
      <point x="462.4661441902811" y="907.0" type="line"/>
      <point x="561.4661441902812" y="907.0" type="line" smooth="yes"/>
      <point x="703.4661441902812" y="907.0"/>
      <point x="822.6531328834857" y="1037.0"/>
      <point x="816.4166071488038" y="1156.0" type="qcurve" smooth="yes"/>
      <point x="810.49452808982" y="1269.0"/>
      <point x="693.4194778866093" y="1404.0"/>
      <point x="559.4194778866093" y="1404.0" type="qcurve" smooth="yes"/>
      <point x="426.4194778866094" y="1404.0"/>
      <point x="307.2239848061604" y="1236.0"/>
      <point x="316.18571506356056" y="1065.0" type="qcurve" smooth="yes"/>
      <point x="393.8016361817454" y="-416.0" type="line"/>
    </contour>
  </outline>
</glyph>
<glyph name="kappa" format="2">
  <advance width="1043"/>
  <unicode hex="03BA"/>
  <outline>
    <contour>
      <point x="868.0" y="0.0" type="line"/>
      <point x="424.0014892819891" y="477.0" type="line"/>
      <point x="531.3981090923259" y="603.0" type="line"/>
      <point x="1096.0" y="0.0" type="line"/>
    </contour>
    <contour>
      <point x="247.03125463734455" y="610.0" type="line"/>
      <point x="426.03125463734455" y="610.0" type="line"/>
      <point x="787.8670161942401" y="1052.0" type="line"/>
      <point x="1005.8670161942401" y="1052.0" type="line"/>
      <point x="521.6303826333856" y="465.0" type="line"/>
      <point x="254.63038263338558" y="465.0" type="line"/>
    </contour>
    <contour>
      <point x="316.8670161942401" y="1052.0" type="line"/>
      <point x="372.0" y="0.0" type="line"/>
      <point x="186.0" y="0.0" type="line"/>
      <point x="130.86701619424008" y="1052.0" type="line"/>
    </contour>
  </outline>
</glyph>
<glyph name="xi" format="2">
  <advance width="920"/>
  <unicode hex="03BE"/>
  <outline>
    <contour>
      <point x="705.2379071904985" y="-348.0" type="line"/>
      <point x="725.4602948884973" y="-295.0"/>
      <point x="751.2195169601931" y="-195.0"/>
      <point x="748.494312437475" y="-143.0" type="qcurve"/>
      <point x="745.4022534597755" y="-84.0"/>
      <point x="681.4674178199251" y="-28.0"/>
      <point x="596.4716700135474" y="-9.0" type="qcurve" smooth="yes"/>
      <point x="547.8951844414339" y="2.0" type="line" smooth="yes"/>
      <point x="305.0127565808666" y="57.0"/>
      <point x="110.3173174135039" y="242.0"/>
      <point x="102.14170384534938" y="398.0" type="qcurve"/>
      <point x="95.90517811066742" y="517.0"/>
      <point x="216.5808455919082" y="714.0"/>
      <point x="375.803233289907" y="767.0" type="qcurve"/>
      <point x="377.0610199927" y="743.0" type="line"/>
      <point x="258.545446587114" y="791.0"/>
      <point x="123.47464857752556" y="945.0"/>
      <point x="115.55256951854184" y="1058.0" type="qcurve"/>
      <point x="108.79196599102946" y="1187.0"/>
      <point x="240.24949796789366" y="1350.0"/>
      <point x="396.9959634587228" y="1393.0" type="qcurve"/>
      <point x="397.4676334722702" y="1384.0" type="line"/>
      <point x="56.46763347227022" y="1384.0" type="line"/>
      <point x="48.50165102124788" y="1536.0" type="line"/>
      <point x="803.5016510212479" y="1536.0" type="line"/>
      <point x="811.4676334722702" y="1384.0" type="line"/>
      <point x="499.463381278648" y="1365.0"/>
      <point x="286.01010149540605" y="1221.0"/>
      <point x="293.2947828157488" y="1082.0" type="qcurve" smooth="yes"/>
      <point x="298.9024151990343" y="975.0"/>
      <point x="447.6630187265467" y="846.0"/>
      <point x="597.6630187265466" y="846.0" type="qcurve" smooth="yes"/>
      <point x="777.6630187265466" y="846.0" type="line"/>
      <point x="785.6290011775691" y="694.0" type="line"/>
      <point x="605.6290011775691" y="694.0" type="line" smooth="yes"/>
      <point x="436.629001177569" y="694.0"/>
      <point x="284.80461474572354" y="538.0"/>
      <point x="291.46040271466984" y="411.0" type="qcurve"/>
      <point x="297.33007399437054" y="299.0"/>
      <point x="440.62325970195775" y="198.0"/>
      <point x="589.4051241975811" y="164.0" type="qcurve" smooth="yes"/>
      <point x="651.1388331075437" y="150.0" type="line" smooth="yes"/>
      <point x="808.0255131617332" y="114.0"/>
      <point x="918.6855533243017" y="6.0"/>
      <point x="923.4022534597755" y="-84.0" type="qcurve"/>
      <point x="926.7039435546071" y="-147.0"/>
      <point x="903.5693626406857" y="-278.0"/>
      <point x="875.2379071904985" y="-348.0" type="qcurve"/>
    </contour>
  </outline>
</glyph>
<glyph name="chi" format="2">
  <advance width="979"/>
  <unicode hex="03C7"/>
  <outline>
    <contour>
      <point x="804.8016361817454" y="-416.0" type="line"/>
      <point x="459.84989959357875" y="270.0" type="line"/>
      <point x="450.84989959357875" y="270.0" type="line"/>
      <point x="6.867016194240087" y="1052.0" type="line"/>
      <point x="219.86701619424008" y="1052.0" type="line"/>
      <point x="547.0935482596885" y="418.0" type="line"/>
      <point x="557.0935482596885" y="418.0" type="line"/>
      <point x="1018.8016361817454" y="-416.0" type="line"/>
    </contour>
    <contour>
      <point x="79.80163618174537" y="-416.0" type="line"/>
      <point x="465.0453926740277" y="438.0" type="line"/>
      <point x="482.0453926740277" y="438.0" type="line"/>
      <point x="721.8670161942401" y="1052.0" type="line"/>
      <point x="931.8670161942401" y="1052.0" type="line"/>
      <point x="589.1685984628992" y="283.0" type="line"/>
      <point x="572.1685984628992" y="283.0" type="line"/>
      <point x="289.8016361817454" y="-416.0" type="line"/>
    </contour>
  </outline>
</glyph>
<glyph name="kaisymbol" format="2">
  <advance width="1043"/>
  <unicode hex="03D7"/>
  <outline>
    <contour>
      <point x="186.0" y="0.0" type="line"/>
      <point x="130.86701619424008" y="1052.0" type="line"/>
      <point x="316.8670161942401" y="1052.0" type="line"/>
      <point x="372.0" y="0.0" type="line"/>
    </contour>
    <contour>
      <point x="267.6303826333856" y="465.0" type="line"/>
      <point x="260.03125463734455" y="610.0" type="line"/>
      <point x="426.03125463734455" y="610.0" type="line"/>
      <point x="787.8670161942401" y="1052.0" type="line"/>
      <point x="1005.8670161942401" y="1052.0" type="line"/>
      <point x="587.4377602907423" y="545.0" type="line"/>
      <point x="1085.3186988693205" y="13.0" type="line"/>
      <point x="417.92058977699463" y="-590.0" type="line"/>
      <point x="292.79313179450094" y="-454.0" type="line"/>
      <point x="841.5325821800749" y="28.0" type="line"/>
      <point x="435.6303826333856" y="465.0" type="line"/>
    </contour>
  </outline>
</glyph>
<glyph name="Dje" format="2">
  <advance width="1616"/>
  <unicode hex="0402"/>
  <guideline x="573.2451379480989" y="625" angle="86.99999999999997" identifier="YDADns81zF"/>
  <outline>
    <contour>
      <point x="510.0" y="0.0" type="line"/>
      <point x="437.7820801479685" y="1378.0" type="line"/>
      <point x="629.7820801479685" y="1378.0" type="line"/>
      <point x="702.0" y="0.0" type="line"/>
    </contour>
    <contour>
      <point x="1145.0" y="0.0" type="line"/>
      <point x="1135.4617841704865" y="182.0" type="line"/>
      <point x="1143.4617841704865" y="182.0" type="line" smooth="yes"/>
      <point x="1246.4617841704865" y="182.0"/>
      <point x="1341.0156273186722" y="305.0"/>
      <point x="1335.670033831802" y="407.0" type="qcurve" smooth="yes"/>
      <point x="1334.8315093632734" y="423.0" type="line" smooth="yes"/>
      <point x="1328.123313615044" y="551.0"/>
      <point x="1164.7338167361352" y="692.0"/>
      <point x="943.7338167361352" y="692.0" type="qcurve" smooth="yes"/>
      <point x="835.5325588745352" y="692.0"/>
      <point x="663.834380101079" y="671.0"/>
      <point x="571.987351245306" y="649.0" type="qcurve"/>
      <point x="563.7069221185853" y="807.0" type="line"/>
      <point x="654.5539509743584" y="829.0"/>
      <point x="831.5349586064145" y="850.0"/>
      <point x="948.4533876094146" y="850.0" type="qcurve" smooth="yes"/>
      <point x="1248.4533876094144" y="850.0"/>
      <point x="1516.297545727382" y="624.0"/>
      <point x="1526.359839349726" y="432.0" type="qcurve" smooth="yes"/>
      <point x="1527.565218273236" y="409.0" type="line" smooth="yes"/>
      <point x="1536.6841718684852" y="235.0"/>
      <point x="1350.0" y="0.0"/>
      <point x="1153.0" y="0.0" type="qcurve" smooth="yes"/>
    </contour>
    <contour>
      <point x="-6.0252975093881815" y="1298.0" type="line"/>
      <point x="-14.305726636108773" y="1456.0" type="line"/>
      <point x="1113.6942733638912" y="1456.0" type="line"/>
      <point x="1121.974702490612" y="1298.0" type="line"/>
    </contour>
  </outline>
</glyph>
<glyph name="Ieukran" format="2">
  <advance width="1359"/>
  <unicode hex="0404"/>
  <guideline x="207.75507770424616" y="787" angle="86.99999999999997" identifier="mFTeE97JTj"/>
  <outline>
    <contour>
      <point x="759.5722333784912" y="-30.0" type="qcurve" smooth="yes"/>
      <point x="499.57223337849126" y="-30.0"/>
      <point x="134.86690836806756" y="346.0"/>
      <point x="117.25789452896552" y="682.0" type="qcurve" smooth="yes"/>
      <point x="112.43637883492569" y="774.0" type="line" smooth="yes"/>
      <point x="94.82736499582367" y="1110.0"/>
      <point x="420.12203998539997" y="1486.0"/>
      <point x="680.1220399854" y="1486.0" type="qcurve" smooth="yes"/>
      <point x="940.1220399854" y="1486.0"/>
      <point x="1250.0582570810668" y="1201.0"/>
      <point x="1260.5922207169583" y="1000.0" type="qcurve" smooth="yes"/>
      <point x="1261.1162985097887" y="990.0" type="line"/>
      <point x="1069.1162985097887" y="990.0" type="line"/>
      <point x="1068.5922207169583" y="1000.0" type="line" smooth="yes"/>
      <point x="1061.3075393966155" y="1139.0"/>
      <point x="871.7169157878188" y="1322.0"/>
      <point x="688.7169157878188" y="1322.0" type="qcurve" smooth="yes"/>
      <point x="509.71691578781883" y="1322.0"/>
      <point x="291.8670161942401" y="1052.0"/>
      <point x="305.2309999114157" y="797.0" type="qcurve" smooth="yes"/>
      <point x="311.67715676322985" y="674.0" type="line" smooth="yes"/>
      <point x="324.67428602542424" y="426.0"/>
      <point x="570.9773575760724" y="134.0"/>
      <point x="750.9773575760724" y="134.0" type="qcurve" smooth="yes"/>
      <point x="922.9773575760724" y="134.0"/>
      <point x="1089.2295106294266" y="320.0"/>
      <point x="1096.1020526469329" y="456.0" type="qcurve" smooth="yes"/>
      <point x="1096.5779748541026" y="466.0" type="line"/>
      <point x="1288.5779748541026" y="466.0" type="line"/>
      <point x="1288.1020526469329" y="456.0" type="line" smooth="yes"/>
      <point x="1278.5836085035412" y="256.0"/>
      <point x="1019.5722333784912" y="-30.0"/>
    </contour>
    <contour>
      <point x="214.78197232179593" y="672.0" type="line"/>
      <point x="206.50154319507536" y="830.0" type="line"/>
      <point x="930.5015431950753" y="830.0" type="line"/>
      <point x="938.7819723217959" y="672.0" type="line"/>
    </contour>
  </outline>
</glyph>
<glyph name="be" format="2">
  <advance width="1172"/>
  <unicode hex="0431"/>
  <outline>
    <contour>
      <point x="295.6431392142522" y="522.0" type="qcurve" smooth="yes"/>
      <point x="297.32018815130954" y="490.0" type="line" smooth="yes"/>
      <point x="305.443393940181" y="335.0"/>
      <point x="470.6062509274689" y="122.0"/>
      <point x="622.6062509274689" y="122.0" type="qcurve" smooth="yes"/>
      <point x="774.6062509274689" y="122.0"/>
      <point x="917.4433939401811" y="335.0"/>
      <point x="909.3201881513096" y="490.0" type="qcurve" smooth="yes"/>
      <point x="907.6431392142522" y="522.0" type="line" smooth="yes"/>
      <point x="899.5199334253807" y="677.0"/>
      <point x="734.3570764380928" y="890.0"/>
      <point x="582.3570764380928" y="890.0" type="qcurve" smooth="yes"/>
      <point x="430.35707643809286" y="890.0"/>
      <point x="287.5199334253807" y="677.0"/>
    </contour>
    <contour>
      <point x="620.3910939870705" y="1042.0" type="qcurve" smooth="yes"/>
      <point x="829.3910939870705" y="1042.0"/>
      <point x="1085.956204434134" y="745.0"/>
      <point x="1097.6431392142522" y="522.0" type="qcurve" smooth="yes"/>
      <point x="1099.3201881513096" y="490.0" type="line" smooth="yes"/>
      <point x="1111.321569607126" y="261.0"/>
      <point x="856.5722333784912" y="-30.0"/>
      <point x="630.5722333784912" y="-30.0" type="qcurve" smooth="yes"/>
      <point x="396.57223337849126" y="-30.0"/>
      <point x="119.21675404856002" y="263.0"/>
      <point x="101.29329353375974" y="605.0" type="qcurve" smooth="yes"/>
      <point x="99.93069127240065" y="631.0" type="line" smooth="yes"/>
      <point x="80.6446284962413" y="999.0"/>
      <point x="302.78633234159065" y="1397.0"/>
      <point x="629.1659433774386" y="1447.0" type="qcurve" smooth="yes"/>
      <point x="799.684562408087" y="1473.2209355987"/>
      <point x="850.8159775155767" y="1511.0279961385"/>
      <point x="854.5016510212479" y="1536.0" type="qcurve"/>
      <point x="1018.5016510212479" y="1536.0" type="line"/>
      <point x="1013.0044678459673" y="1431.0"/>
      <point x="872.4506246977814" y="1308.0"/>
      <point x="658.9704502969896" y="1279.0" type="qcurve" smooth="yes"/>
      <point x="404.7615046630186" y="1245.0012290846"/>
      <point x="239.7878032219743" y="995.5959757812"/>
      <point x="233.02136879428355" y="801.0" type="qcurve"/>
      <point x="244.02136879428355" y="801.0" type="line"/>
      <point x="290.1516975145829" y="913.0"/>
      <point x="483.3910939870705" y="1042.0"/>
    </contour>
  </outline>
</glyph>
<glyph name="ve" format="2">
  <advance width="1125"/>
  <unicode hex="0432"/>
  <outline>
    <contour>
      <point x="186.0" y="0.0" type="line"/>
      <point x="130.86701619424008" y="1052.0" type="line"/>
      <point x="584.8670161942401" y="1052.0" type="line" smooth="yes"/>
      <point x="759.8670161942401" y="1052.0"/>
      <point x="968.204105293866" y="912.0"/>
      <point x="975.5936021727748" y="771.0" type="qcurve" smooth="yes"/>
      <point x="980.2578945289655" y="682.0"/>
      <point x="879.5462194290452" y="563.0111833703"/>
      <point x="791.4901680700253" y="544.0" type="qcurve"/>
      <point x="791.6473914078745" y="541.0" type="line"/>
      <point x="901.485915876403" y="525.0"/>
      <point x="1031.9320727282172" y="402.0"/>
      <point x="1036.9632195393892" y="306.0" type="qcurve" smooth="yes"/>
      <point x="1044.5623475354303" y="161.0"/>
      <point x="843.0" y="0.0"/>
      <point x="670.0" y="0.0" type="qcurve" smooth="yes"/>
    </contour>
    <contour>
      <point x="364.40087200395897" y="145.0" type="line"/>
      <point x="662.400872003959" y="145.0" type="line" smooth="yes"/>
      <point x="763.400872003959" y="145.0"/>
      <point x="853.7365796477683" y="234.0"/>
      <point x="849.9632195393892" y="306.0" type="qcurve" smooth="yes"/>
      <point x="846.2422672102932" y="377.0"/>
      <point x="747.7351981919517" y="463.0"/>
      <point x="645.7351981919517" y="463.0" type="qcurve" smooth="yes"/>
      <point x="267.73519819195167" y="463.0" type="line"/>
      <point x="260.1884779751937" y="607.0" type="line"/>
      <point x="608.1884779751937" y="607.0" type="line" smooth="yes"/>
      <point x="708.1884779751937" y="607.0"/>
      <point x="791.8386322947013" y="690.0"/>
      <point x="788.1176799656052" y="761.0" type="qcurve" smooth="yes"/>
      <point x="784.4491354157923" y="831.0"/>
      <point x="692.4661441902812" y="907.0"/>
      <point x="592.4661441902812" y="907.0" type="qcurve" smooth="yes"/>
      <point x="324.4661441902811" y="907.0" type="line"/>
    </contour>
  </outline>
</glyph>
<glyph name="ghe" format="2">
  <advance width="864"/>
  <unicode hex="0433"/>
  <anchor x="487.8670161942401" y="1052" name="top"/>
  <outline>
    <contour>
      <point x="130.86701619424008" y="1052.0" type="line"/>
      <point x="816.8670161942401" y="1052.0" type="line"/>
      <point x="824.4661441902812" y="907.0" type="line"/>
      <point x="324.4661441902811" y="907.0" type="line"/>
      <point x="372.0" y="0.0" type="line"/>
      <point x="186.0" y="0.0" type="line"/>
    </contour>
  </outline>
</glyph>
<glyph name="de" format="2">
  <advance width="1131"/>
  <unicode hex="0434"/>
  <outline>
    <contour>
      <point x="995.1501004064213" y="-270.0" type="line"/>
      <point x="981.0" y="0.0" type="line"/>
      <point x="216.0" y="0.0" type="line"/>
      <point x="230.15010040642127" y="-270.0" type="line"/>
      <point x="62.150100406421274" y="-270.0" type="line"/>
      <point x="40.400872003958945" y="145.0" type="line"/>
      <point x="1141.400872003959" y="145.0" type="line"/>
      <point x="1163.1501004064212" y="-270.0" type="line"/>
    </contour>
    <contour>
      <point x="373.4661441902811" y="907.0" type="line"/>
      <point x="377.2720325656487" y="510.0" type="line" smooth="yes"/>
      <point x="379.3385783816149" y="337.0"/>
      <point x="353.9334541840338" y="173.0"/>
      <point x="323.8597854366397" y="79.0" type="qcurve"/>
      <point x="115.8597854366397" y="79.0" type="line"/>
      <point x="162.50993975614722" y="162.0"/>
      <point x="207.70543283659623" y="330.0"/>
      <point x="205.80461474572354" y="538.0" type="qcurve" smooth="yes"/>
      <point x="200.86701619424008" y="1052.0" type="line"/>
      <point x="938.8670161942401" y="1052.0" type="line"/>
      <point x="989.8597854366398" y="79.0" type="line"/>
      <point x="803.8597854366398" y="79.0" type="line"/>
      <point x="760.4661441902812" y="907.0" type="line"/>
    </contour>
  </outline>
</glyph>
<glyph name="zhe" format="2">
  <advance width="1395"/>
  <unicode hex="0436"/>
  <anchor x="678.8670161942401" y="1052" name="top"/>
  <anchor x="1258.0" y="0" name="cy_descender"/>
  <outline>
    <contour>
      <point x="823.0" y="0.0" type="line"/>
      <point x="643.0" y="0.0" type="line"/>
      <point x="587.8670161942401" y="1052.0" type="line"/>
      <point x="767.8670161942401" y="1052.0" type="line"/>
    </contour>
    <contour>
      <point x="1248.0" y="0.0" type="line"/>
      <point x="892.2635281784043" y="472.0" type="line"/>
      <point x="1006.0270024437224" y="591.0" type="line"/>
      <point x="1458.0" y="0.0" type="line"/>
    </contour>
    <contour>
      <point x="701.0312546373445" y="610.0" type="line"/>
      <point x="880.0312546373445" y="610.0" type="line"/>
      <point x="1161.86701619424" y="1052.0" type="line"/>
      <point x="1365.86701619424" y="1052.0" type="line"/>
      <point x="984.6303826333856" y="465.0" type="line"/>
      <point x="708.6303826333856" y="465.0" type="line"/>
    </contour>
    <contour>
      <point x="218.0" y="0.0" type="line"/>
      <point x="13.0" y="0.0" type="line"/>
      <point x="403.0270024437223" y="591.0" type="line"/>
      <point x="522.2635281784043" y="472.0" type="line"/>
    </contour>
    <contour>
      <point x="701.0312546373445" y="610.0" type="line"/>
      <point x="708.6303826333856" y="465.0" type="line"/>
      <point x="430.6303826333856" y="465.0" type="line"/>
      <point x="-12.132983805759913" y="1052.0" type="line"/>
      <point x="193.86701619424008" y="1052.0" type="line"/>
      <point x="522.0312546373445" y="610.0" type="line"/>
    </contour>
  </outline>
</glyph>
<glyph name="ze" format="2">
  <advance width="1095"/>
  <unicode hex="0437"/>
  <anchor x="594.052407779283" y="-1" name="bottom"/>
  <outline>
    <contour>
      <point x="576.5722333784912" y="-30.0" type="qcurve" smooth="yes"/>
      <point x="346.02841315379123" y="-30.0"/>
      <point x="116.67566748124078" y="197.0"/>
      <point x="109.33857838161494" y="337.0" type="qcurve" smooth="yes"/>
      <point x="109.07653948519973" y="342.0" type="line"/>
      <point x="289.07653948519976" y="342.0" type="line"/>
      <point x="289.3385783816149" y="337.0" type="line" smooth="yes"/>
      <point x="293.5836085035413" y="256.0"/>
      <point x="418.92579979966894" y="122.0"/>
      <point x="569.6062509274689" y="122.0" type="qcurve" smooth="yes"/>
      <point x="693.1803954141689" y="122.0"/>
      <point x="824.3654729991647" y="222.0"/>
      <point x="819.8059962015401" y="309.0" type="qcurve" smooth="yes"/>
      <point x="816.1374516517271" y="379.0"/>
      <point x="717.7351981919517" y="463.0"/>
      <point x="615.7351981919517" y="463.0" type="qcurve" smooth="yes"/>
      <point x="430.73519819195167" y="463.0" type="line"/>
      <point x="423.1884779751937" y="607.0" type="line"/>
      <point x="578.1884779751937" y="607.0" type="line" smooth="yes"/>
      <point x="680.7832148172937" y="607.0"/>
      <point x="766.8386322947013" y="690.0"/>
      <point x="763.1176799656052" y="761.0" type="qcurve" smooth="yes"/>
      <point x="758.8726498436788" y="842.0"/>
      <point x="641.2607652667712" y="930.0"/>
      <point x="539.2607652667712" y="930.0" type="qcurve" smooth="yes"/>
      <point x="409.26076526677116" y="930.0"/>
      <point x="284.60210656001925" y="809.0"/>
      <point x="289.52843781262516" y="715.0" type="qcurve" smooth="yes"/>
      <point x="289.7904767090404" y="710.0" type="line"/>
      <point x="109.79047670904036" y="710.0" type="line"/>
      <point x="109.52843781262516" y="715.0" type="line" smooth="yes"/>
      <point x="100.77633867235718" y="882.0"/>
      <point x="321.2947828157488" y="1082.0"/>
      <point x="531.2947828157488" y="1082.0" type="qcurve" smooth="yes"/>
      <point x="731.2947828157488" y="1082.0"/>
      <point x="942.9944741767338" y="916.0"/>
      <point x="950.3315632763596" y="776.0" type="qcurve" smooth="yes"/>
      <point x="954.576593398286" y="695.0"/>
      <point x="853.0532500962927" y="563.3365492699"/>
      <point x="763.4901680700253" y="544.0" type="qcurve"/>
      <point x="763.6473914078745" y="541.0" type="line"/>
      <point x="872.4562622414517" y="525.0043592851"/>
      <point x="1001.8272571696511" y="404.0"/>
      <point x="1006.8059962015401" y="309.0" type="qcurve" smooth="yes"/>
      <point x="1015.400872003959" y="145.0"/>
      <point x="769.2817677465912" y="-30.0"/>
    </contour>
  </outline>
</glyph>
<glyph name="ieukran" format="2">
  <advance width="1068"/>
  <unicode hex="0454"/>
  <guideline x="189.28053695289313" y="548" angle="86.99999999999997" identifier="n4jm0tBg3Y"/>
  <outline>
    <contour>
      <point x="96.27203256564871" y="510.0" type="qcurve" smooth="yes"/>
      <point x="94.59498362859138" y="542.0" type="line" smooth="yes"/>
      <point x="81.91230104209527" y="784.0"/>
      <point x="325.2947828157488" y="1082.0"/>
      <point x="552.2947828157488" y="1082.0" type="qcurve" smooth="yes"/>
      <point x="762.2947828157488" y="1082.0"/>
      <point x="992.1913487129993" y="855.0"/>
      <point x="999.5284378126252" y="715.0" type="qcurve" smooth="yes"/>
      <point x="999.7904767090404" y="710.0" type="line"/>
      <point x="819.7904767090404" y="710.0" type="line"/>
      <point x="819.5284378126252" y="715.0" type="line" smooth="yes"/>
      <point x="815.0737765735666" y="800.0"/>
      <point x="690.2607652667712" y="930.0"/>
      <point x="560.2607652667712" y="930.0" type="qcurve" smooth="yes"/>
      <point x="410.26076526677116" y="930.0"/>
      <point x="271.63325337119124" y="713.0"/>
      <point x="279.44201248436445" y="564.0" type="qcurve" smooth="yes"/>
      <point x="282.79611035847915" y="500.0" type="line" smooth="yes"/>
      <point x="291.23376282304883" y="339.0"/>
      <point x="452.6062509274689" y="122.0"/>
      <point x="602.6062509274689" y="122.0" type="qcurve" smooth="yes"/>
      <point x="732.6062509274689" y="122.0"/>
      <point x="843.7932396206735" y="252.0"/>
      <point x="839.338578381615" y="337.0" type="qcurve" smooth="yes"/>
      <point x="839.0765394851998" y="342.0" type="line"/>
      <point x="1019.0765394851998" y="342.0" type="line"/>
      <point x="1019.338578381615" y="337.0" type="line" smooth="yes"/>
      <point x="1026.675667481241" y="197.0"/>
      <point x="820.5722333784912" y="-30.0"/>
      <point x="610.5722333784912" y="-30.0" type="qcurve" smooth="yes"/>
      <point x="383.57223337849126" y="-30.0"/>
      <point x="108.95471515214481" y="268.0"/>
    </contour>
    <contour>
      <point x="187.03125463734455" y="610.0" type="line"/>
      <point x="716.0312546373445" y="610.0" type="line"/>
      <point x="723.6303826333856" y="465.0" type="line"/>
      <point x="194.63038263338558" y="465.0" type="line"/>
    </contour>
  </outline>
</glyph>
<glyph name="gheup" format="2">
  <advance width="864"/>
  <unicode hex="0491"/>
  <outline>
    <contour>
      <point x="130.86701619424008" y="1052.0" type="line"/>
      <point x="648.8670161942401" y="1052.0" type="line"/>
      <point x="634.7169157878188" y="1322.0" type="line"/>
      <point x="802.7169157878188" y="1322.0" type="line"/>
      <point x="824.4661441902812" y="907.0" type="line"/>
      <point x="324.4661441902811" y="907.0" type="line"/>
      <point x="372.0" y="0.0" type="line"/>
      <point x="186.0" y="0.0" type="line"/>
    </contour>
  </outline>
</glyph>
<glyph name="quotesinglbase" format="2">
  <advance width="410"/>
  <unicode hex="201A"/>
  <outline>
    <contour>
      <point x="344.47028855773084" y="220.0" type="line"/>
      <point x="351.1784843059602" y="92.0" type="line" smooth="yes"/>
      <point x="355.8951844414339" y="2.0"/>
      <point x="275.5863714151744" y="-202.0"/>
      <point x="197.15010040642127" y="-270.0" type="qcurve"/>
      <point x="87.32433251875922" y="-197.0" type="line"/>
      <point x="130.86541908607848" y="-131.0"/>
      <point x="171.58073776573568" y="8.0"/>
      <point x="167.3357076438093" y="89.0" type="qcurve" smooth="yes"/>
      <point x="160.4702885577308" y="220.0" type="line"/>
    </contour>
  </outline>
</glyph>
<glyph name="fraction" format="2">
  <advance width="342"/>
  <unicode hex="2044"/>
  <guideline x="-9.219409134020609" y="901" angle="0" identifier="tcCoNUQTdD"/>
  <guideline x="8.913682497911832" y="555" angle="0" identifier="0lx51aIE0d"/>
  <outline>
    <contour>
      <point x="681.6942733638912" y="1456.0" type="line"/>
      <point x="-160.0" y="0.0" type="line"/>
      <point x="-340.0" y="0.0" type="line"/>
      <point x="501.6942733638912" y="1456.0" type="line"/>
    </contour>
  </outline>
</glyph>
<glyph name="ruble" format="2">
  <advance width="1024"/>
  <unicode hex="20BD"/>
  <outline>
    <contour>
      <point x="531.9788468580615" y="611.0" type="qcurve" smooth="yes"/>
      <point x="35.978846858061495" y="611.0" type="line"/>
      <point x="27.75082551062394" y="768.0" type="line"/>
      <point x="523.7508255106239" y="768.0" type="line" smooth="yes"/>
      <point x="686.7508255106239" y="768.0"/>
      <point x="832.1516975145829" y="913.0"/>
      <point x="825.8627640006179" y="1033.0" type="qcurve" smooth="yes"/>
      <point x="820.3599471758985" y="1138.0"/>
      <point x="664.9747024906118" y="1298.0"/>
      <point x="495.97470249061183" y="1298.0" type="qcurve" smooth="yes"/>
      <point x="336.97470249061183" y="1298.0" type="line"/>
      <point x="405.0" y="0.0" type="line"/>
      <point x="226.0" y="0.0" type="line"/>
      <point x="149.69427336389123" y="1456.0" type="line"/>
      <point x="487.6942733638912" y="1456.0" type="line" smooth="yes"/>
      <point x="733.6942733638912" y="1456.0"/>
      <point x="1008.2197326125382" y="1217.0"/>
      <point x="1017.7579484420518" y="1035.0" type="qcurve" smooth="yes"/>
      <point x="1028.23950429866" y="835.0"/>
      <point x="777.9788468580615" y="611.0"/>
    </contour>
    <contour>
      <point x="768.6785382190465" y="445.0" type="line"/>
      <point x="777.0113751250501" y="286.0" type="line"/>
      <point x="53.011375125050066" y="286.0" type="line"/>
      <point x="44.67853821904642" y="445.0" type="line"/>
    </contour>
  </outline>
</glyph>
<glyph name="rightanglebracket" format="2">
  <advance width="727"/>
  <unicode hex="27E9"/>
  <outline>
    <contour>
      <point x="49.4248958837031" y="-218.0" type="line"/>
      <point x="531.0270024437223" y="591.0" type="line"/>
      <point x="-35.104599906221026" y="1414.0" type="line"/>
      <point x="72.44073885472042" y="1499.0" type="line"/>
      <point x="718.4632734524755" y="659.0" type="line"/>
      <point x="725.2238769799878" y="530.0" type="line"/>
      <point x="166.93196490204468" y="-304.0" type="line"/>
    </contour>
  </outline>
</glyph>
<glyph name="Tse" format="2">
  <advance width="1478"/>
  <outline>
    <contour>
      <point x="1329.198255992082" y="-290.0" type="line"/>
      <point x="1314.0" y="0.0" type="line"/>
      <point x="208.0" y="0.0" type="line"/>
      <point x="131.69427336389123" y="1456.0" type="line"/>
      <point x="323.6942733638912" y="1456.0" type="line"/>
      <point x="391.7195708732794" y="158.0" type="line"/>
      <point x="1105.7195708732795" y="158.0" type="line"/>
      <point x="1037.6942733638912" y="1456.0" type="line"/>
      <point x="1229.6942733638912" y="1456.0" type="line"/>
      <point x="1297.7195708732795" y="158.0" type="line"/>
      <point x="1477.7195708732795" y="158.0" type="line"/>
      <point x="1501.198255992082" y="-290.0" type="line"/>
    </contour>
  </outline>
</glyph>
<glyph name="acutecomb.case" format="2">
  <anchor x="-38.30572663610877" y="1456" name="_top"/>
  <anchor x="-66.71074300751741" y="1998" name="top"/>
  <outline>
    <contour>
      <point x="-164.94450583056624" y="1659.0" type="line"/>
      <point x="30.289256992482592" y="1998.0" type="line"/>
      <point x="197.47762714150372" y="1899.0" type="line"/>
      <point x="-34.85244685286679" y="1600.0" type="line"/>
    </contour>
  </outline>
</glyph>
<glyph name="breve.cyrcomb.case" format="2">
  <anchor x="-38.30572663610877" y="1456" name="_top"/>
  <anchor x="-63.61868402981794" y="1939" name="top"/>
  <outline>
    <contour>
      <point x="-54.13287597958738" y="1758.0" type="qcurve" smooth="yes"/>
      <point x="32.86712402041262" y="1758.0"/>
      <point x="138.83172501561842" y="1835.0"/>
      <point x="169.38131597018207" y="1939.0" type="qcurve"/>
      <point x="323.0980161056558" y="1849.0" type="line"/>
      <point x="273.06825075030036" y="1716.0"/>
      <point x="78.14755314713321" y="1600.0"/>
      <point x="-45.85244685286679" y="1600.0" type="qcurve" smooth="yes"/>
      <point x="-169.8524468528668" y="1600.0"/>
      <point x="-377.93174924969964" y="1716.0"/>
      <point x="-440.9019838943442" y="1849.0" type="qcurve"/>
      <point x="-296.6186840298179" y="1939.0" type="line"/>
      <point x="-256.2206827636646" y="1836.0"/>
      <point x="-141.13287597958737" y="1758.0"/>
    </contour>
  </outline>
</glyph>
<glyph name="brevecomb-stack" format="2">
  <anchor x="-37.99127996041052" y="1450" name="top"/>
  <anchor x="-17.132983805759913" y="1052" name="_top"/>
  <outline>
    <contour>
      <point x="197.2920199041157" y="1540.0" type="qcurve"/>
      <point x="295.12203998539997" y="1486.0" type="line"/>
      <point x="265.3104101344211" y="1387.0"/>
      <point x="99.06250927468906" y="1220.0"/>
      <point x="-26.937490725310937" y="1220.0" type="qcurve" smooth="yes"/>
      <point x="-139.93749072531094" y="1220.0"/>
      <point x="-328.9558809556163" y="1373.0"/>
      <point x="-376.9303677938831" y="1487.0" type="qcurve"/>
      <point x="-275.7079800958843" y="1540.0" type="line"/>
      <point x="-237.7207366767509" y="1483.0"/>
      <point x="-113.53236652772978" y="1384.0"/>
      <point x="-34.53236652772978" y="1384.0" type="qcurve" smooth="yes"/>
      <point x="49.46763347227022" y="1384.0"/>
      <point x="164.48889444038127" y="1479.0"/>
    </contour>
  </outline>
</glyph>
<glyph name="breveinvertedcomb-stack.case" format="2">
  <anchor x="-38.30572663610877" y="1456" name="_top"/>
  <anchor x="-61.88922731347756" y="1906" name="top"/>
  <outline>
    <contour>
      <point x="-336.27596128075334" y="1589.0" type="qcurve"/>
      <point x="-432.94450583056624" y="1659.0" type="line"/>
      <point x="-398.608798186757" y="1748.0"/>
      <point x="-204.88922731347756" y="1906.0"/>
      <point x="-60.88922731347756" y="1906.0" type="qcurve" smooth="yes"/>
      <point x="67.11077268652244" y="1906.0"/>
      <point x="281.65749290328046" y="1762.0"/>
      <point x="335.1079019487168" y="1658.0" type="qcurve"/>
      <point x="238.72403871924666" y="1589.0" type="line"/>
      <point x="192.94642641724545" y="1642.0"/>
      <point x="42.967687385356484" y="1737.0"/>
      <point x="-52.032312614643516" y="1737.0" type="qcurve" smooth="yes"/>
      <point x="-154.0323126146435" y="1737.0"/>
      <point x="-296.3156124791698" y="1647.0"/>
    </contour>
  </outline>
</glyph>
<glyph name="breveinvertedcomb.stack" format="2">
  <anchor x="-17.132983805759913" y="1052" name="_top"/>
  <anchor x="-42.445941199469075" y="1535" name="top"/>
  <outline>
    <contour>
      <point x="-266.6754518288957" y="1215.0" type="qcurve"/>
      <point x="-364.50547191017995" y="1269.0" type="line"/>
      <point x="-334.6938420592011" y="1368.0"/>
      <point x="-168.44594119946908" y="1535.0"/>
      <point x="-42.445941199469075" y="1535.0" type="qcurve" smooth="yes"/>
      <point x="70.55405880053092" y="1535.0"/>
      <point x="259.5724490308363" y="1382.0"/>
      <point x="307.5469358691031" y="1268.0" type="qcurve"/>
      <point x="206.32454817110428" y="1215.0" type="line"/>
      <point x="168.33730475197092" y="1272.0"/>
      <point x="44.148934602949765" y="1371.0"/>
      <point x="-34.851065397050235" y="1371.0" type="qcurve" smooth="yes"/>
      <point x="-118.85106539705023" y="1371.0"/>
      <point x="-233.87232636516126" y="1276.0"/>
    </contour>
  </outline>
</glyph>
<glyph name="caroncomb.case" format="2">
  <anchor x="-38.30572663610877" y="1456" name="_top"/>
  <anchor x="-63.671091809100986" y="1940" name="top"/>
  <outline>
    <contour>
      <point x="-113.85244685286679" y="1600.0" type="line"/>
      <point x="-396.671091809101" y="1940.0" type="line"/>
      <point x="-229.67109180910097" y="1940.0" type="line"/>
      <point x="-54.13287597958738" y="1758.0" type="line"/>
      <point x="96.32890819089901" y="1940.0" type="line"/>
      <point x="269.328908190899" y="1940.0" type="line"/>
      <point x="30.14755314713321" y="1600.0" type="line"/>
    </contour>
  </outline>
</glyph>
<glyph name="cedillacomb.case" format="2">
  <anchor x="38.0" y="0" name="_bottom"/>
  <anchor x="65.09482188933258" y="-517" name="bottom"/>
  <outline>
    <contour>
      <point x="-45.04815558566084" y="20.0" type="line"/>
      <point x="93.95184441433916" y="20.0" type="line"/>
      <point x="72.50281682471939" y="-105.0" type="line"/>
      <point x="152.23652573468195" y="-119.0"/>
      <point x="281.0580414287218" y="-211.0"/>
      <point x="285.09344043351604" y="-288.0" type="qcurve" smooth="yes"/>
      <point x="290.49144169966934" y="-391.0"/>
      <point x="73.09482188933258" y="-517.0"/>
      <point x="-128.9051781106674" y="-517.0" type="qcurve"/>
      <point x="-143.0326360931611" y="-381.0" type="line"/>
      <point x="-34.98022831387806" y="-382.0"/>
      <point x="85.97586829408331" y="-343.0"/>
      <point x="83.19825599208211" y="-290.0" type="qcurve" smooth="yes"/>
      <point x="80.63027480721306" y="-241.0"/>
      <point x="9.691186973740514" y="-204.0"/>
      <point x="-74.67566748124078" y="-197.0" type="qcurve"/>
    </contour>
  </outline>
</glyph>
<glyph name="circumflexcomb-stack" format="2">
  <anchor x="-38.56776553252399" y="1461" name="top"/>
  <anchor x="-17.185391585042957" y="1053" name="_top"/>
  <anchor x="356.0625092746891" y="1220" name="topright"/>
  <outline>
    <contour>
      <point x="25.864253282606967" y="1510.0" type="line"/>
      <point x="306.0625092746891" y="1220.0" type="line"/>
      <point x="141.06250927468906" y="1220.0" type="line"/>
      <point x="-33.11735648708765" y="1357.0" type="line"/>
      <point x="-192.93749072531094" y="1220.0" type="line"/>
      <point x="-359.9374907253109" y="1220.0" type="line"/>
      <point x="-118.13574671739303" y="1510.0" type="line"/>
    </contour>
  </outline>
</glyph>
<glyph name="diagonalbarO" format="2">
  <advance width="623"/>
  <outline>
    <contour>
      <point x="47.76060352751239" y="-129.0" type="line"/>
      <point x="89.22663989162099" y="72.0" type="line"/>
      <point x="108.4886787880362" y="67.0" type="line"/>
      <point x="260.4406310285479" y="793.0" type="line"/>
      <point x="380.5893499791526" y="752.0" type="line"/>
      <point x="232.90368882867833" y="40.0" type="line"/>
      <point x="252.16572772509355" y="35.0" type="line"/>
      <point x="217.7606035275124" y="-129.0" type="line"/>
    </contour>
    <contour>
      <point x="406.25236870569927" y="1598.0" type="line"/>
      <point x="577.2523687056993" y="1598.0" type="line"/>
      <point x="537.4718856658924" y="1403.0" type="line"/>
      <point x="517.2622545487602" y="1407.0" type="line"/>
      <point x="380.5893499791526" y="752.0" type="line"/>
      <point x="260.4406310285479" y="793.0" type="line"/>
      <point x="392.7948367288351" y="1435.0" type="line"/>
      <point x="371.5852056117029" y="1439.0" type="line"/>
    </contour>
  </outline>
</glyph>
<glyph name="diagonalbarl" format="2">
  <advance width="629"/>
  <outline>
    <contour>
      <point x="97.42075151625342" y="469.0" type="line"/>
      <point x="5.82162352021237" y="614.0" type="line"/>
      <point x="270.70692211858534" y="807.0" type="line"/>
      <point x="524.2296184555992" y="1026.0" type="line"/>
      <point x="611.6715231137911" y="884.0" type="line"/>
      <point x="351.8386322947012" y="690.0" type="line"/>
    </contour>
  </outline>
</glyph>
<glyph name="diagonalbaro.rvrn" format="2">
  <advance width="512"/>
  <outline>
    <contour>
      <point x="-43.81588204460107" y="-118.0" type="line"/>
      <point x="29.335707643809286" y="89.0" type="line"/>
      <point x="47.59774654022449" y="84.0" type="line"/>
      <point x="65.23939647248761" y="129.0" type="line"/>
      <point x="174.96460099520579" y="77.0" type="line"/>
      <point x="166.1175721394327" y="55.0" type="line"/>
      <point x="186.32720325656487" y="51.0" type="line"/>
      <point x="121.44615685181414" y="-123.0" type="line"/>
    </contour>
    <contour>
      <point x="396.04550050020026" y="1144.0" type="line"/>
      <point x="567.2027238380493" y="1141.0" type="line"/>
      <point x="499.3174252396764" y="948.0" type="line"/>
      <point x="478.0553863432612" y="953.0" type="line"/>
      <point x="466.8896586181677" y="918.0" type="line"/>
      <point x="356.3740852125817" y="966.0" type="line"/>
      <point x="360.58796852333603" y="981.0" type="line"/>
      <point x="340.27352184763777" y="987.0" type="line"/>
    </contour>
  </outline>
</glyph>
<glyph name="dollar.rvrn" format="2">
  <advance width="1024"/>
  <outline>
    <contour>
      <point x="39.032636093161095" y="381.0" type="qcurve" smooth="yes"/>
      <point x="38.45615052104763" y="392.0" type="line"/>
      <point x="215.45615052104765" y="392.0" type="line"/>
      <point x="216.0326360931611" y="381.0" type="line" smooth="yes"/>
      <point x="222.3215696071261" y="261.0"/>
      <point x="393.50568756252505" y="143.0"/>
      <point x="541.505687562525" y="143.0" type="qcurve" smooth="yes"/>
      <point x="688.505687562525" y="143.0"/>
      <point x="840.1119384899939" y="265.0"/>
      <point x="834.8711605616897" y="365.0" type="qcurve" smooth="yes"/>
      <point x="830.154460426216" y="455.0"/>
      <point x="677.1360701959106" y="608.0"/>
      <point x="453.886787880362" y="670.0" type="qcurve" smooth="yes"/>
      <point x="231.68991334409648" y="731.0"/>
      <point x="37.42224079824251" y="946.0"/>
      <point x="29.40385056793712" y="1099.0" type="qcurve" smooth="yes"/>
      <point x="21.280644779065653" y="1254.0"/>
      <point x="250.58945780532514" y="1458.0"/>
      <point x="462.58945780532514" y="1458.0" type="qcurve" smooth="yes"/>
      <point x="675.5894578053251" y="1458.0"/>
      <point x="938.2763925854434" y="1235.0"/>
      <point x="946.6092294914471" y="1076.0" type="qcurve" smooth="yes"/>
      <point x="947.1857150635606" y="1065.0" type="line"/>
      <point x="770.1857150635606" y="1065.0" type="line"/>
      <point x="769.6092294914471" y="1076.0" type="line" smooth="yes"/>
      <point x="764.1064126667277" y="1181.0"/>
      <point x="613.4506246977814" y="1308.0"/>
      <point x="470.4506246977814" y="1308.0" type="qcurve" smooth="yes"/>
      <point x="328.4506246977814" y="1308.0"/>
      <point x="199.16307263963296" y="1199.0"/>
      <point x="204.40385056793713" y="1099.0" type="qcurve" smooth="yes"/>
      <point x="208.64888068986352" y="1018.0"/>
      <point x="355.24800868590455" y="873.0"/>
      <point x="574.4448832221701" y="812.0" type="qcurve" smooth="yes"/>
      <point x="792.5893499791526" y="752.0"/>
      <point x="1001.381100317837" y="527.0"/>
      <point x="1009.8711605616897" y="365.0" type="qcurve" smooth="yes"/>
      <point x="1018.4136285848256" y="202.0"/>
      <point x="770.3144466756983" y="-6.0"/>
      <point x="549.3144466756983" y="-6.0" type="qcurve" smooth="yes"/>
      <point x="327.31444667569826" y="-6.0"/>
      <point x="48.41362858482557" y="202.0"/>
    </contour>
    <contour>
      <point x="482.9093224781171" y="-170.0" type="line"/>
      <point x="468.8640376302619" y="98.0" type="line"/>
      <point x="604.8640376302619" y="98.0" type="line"/>
      <point x="605.8073776573567" y="80.0" type="line"/>
      <point x="620.331455450187" y="70.0" type="line"/>
      <point x="632.9093224781171" y="-170.0" type="line"/>
    </contour>
    <contour>
      <point x="416.3061579407989" y="1368.0" type="line"/>
      <point x="415.36281791370413" y="1386.0" type="line"/>
      <point x="400.8387401208737" y="1396.0" type="line"/>
      <point x="390.8812620570958" y="1586.0" type="line"/>
      <point x="540.8812620570958" y="1586.0" type="line"/>
      <point x="552.3061579407989" y="1368.0" type="line"/>
    </contour>
  </outline>
</glyph>
<glyph name="dotaccentcomb-stack" format="2">
  <anchor x="-17.132983805759913" y="1052" name="_top"/>
  <anchor x="-37.205163271164906" y="1435" name="top"/>
  <outline>
    <contour>
      <point x="-141" y="1324" type="qcurve" smooth="yes"/>
      <point x="-141" y="1371"/>
      <point x="-81" y="1435"/>
      <point x="-25" y="1435" type="qcurve" smooth="yes"/>
      <point x="31" y="1435"/>
      <point x="91" y="1371"/>
      <point x="91" y="1324" type="qcurve" smooth="yes"/>
      <point x="91" y="1277"/>
      <point x="31" y="1213"/>
      <point x="-25" y="1213" type="qcurve" smooth="yes"/>
      <point x="-81" y="1213"/>
      <point x="-141" y="1277"/>
    </contour>
  </outline>
</glyph>
<glyph name="gravecomb.case" format="2">
  <anchor x="-38.25331885682574" y="1455" name="_top"/>
  <anchor x="-65.45295630472441" y="1974" name="top"/>
  <outline>
    <contour>
      <point x="-89.85244685286679" y="1600.0" type="line"/>
      <point x="-341.31699393498633" y="1876.0" type="line"/>
      <point x="-189.4529563047244" y="1974.0" type="line"/>
      <point x="18.216969700905082" y="1675.0" type="line"/>
    </contour>
  </outline>
</glyph>
<glyph name="hryvnia.rvrn" format="2">
  <advance width="1024"/>
  <outline>
    <contour>
      <point x="98.49580171946405" y="334.0" type="qcurve" smooth="yes"/>
      <point x="91.99723708836689" y="458.0"/>
      <point x="225.67290456960765" y="655.0"/>
      <point x="380.5893499791526" y="752.0" type="qcurve" smooth="yes"/>
      <point x="552.9817175958672" y="859.0" type="line" smooth="yes"/>
      <point x="663.3655808253372" y="928.0"/>
      <point x="758.762200635674" y="1054.0"/>
      <point x="754.988840527295" y="1126.0" type="qcurve" smooth="yes"/>
      <point x="750.0625092746891" y="1220.0"/>
      <point x="620.7169157878188" y="1322.0"/>
      <point x="504.71691578781883" y="1322.0" type="qcurve" smooth="yes"/>
      <point x="409.71691578781883" y="1322.0"/>
      <point x="281.69990701333" y="1246.0"/>
      <point x="258.42085934242596" y="1175.0" type="qcurve" smooth="yes"/>
      <point x="249.94068494163417" y="1146.0" type="line"/>
      <point x="77.69140262608558" y="1208.0" type="line"/>
      <point x="86.2239848061604" y="1236.0" type="line" smooth="yes"/>
      <point x="123.9350512921954" y="1356.0"/>
      <point x="337.12203998539997" y="1486.0"/>
      <point x="499.12203998539997" y="1486.0" type="qcurve" smooth="yes"/>
      <point x="697.1220399854" y="1486.0"/>
      <point x="918.6078480356305" y="1305.0"/>
      <point x="927.4647627344646" y="1136.0" type="qcurve" smooth="yes"/>
      <point x="932.3386862077874" y="1043.0"/>
      <point x="794.3528242444706" y="871.0"/>
      <point x="634.5411943934918" y="772.0" type="qcurve" smooth="yes"/>
      <point x="444.7253123488907" y="654.0" type="line" smooth="yes"/>
      <point x="347.8697791058732" y="594.0"/>
      <point x="266.4689071019143" y="449.0"/>
      <point x="271.7620928095015" y="348.0" type="qcurve" smooth="yes"/>
      <point x="277.1600940756548" y="245.0"/>
      <point x="422.9773575760724" y="134.0"/>
      <point x="553.9773575760724" y="134.0" type="qcurve" smooth="yes"/>
      <point x="667.9773575760724" y="134.0"/>
      <point x="809.3088130262595" y="204.0"/>
      <point x="826.9023073728617" y="269.0" type="qcurve" smooth="yes"/>
      <point x="837.8059962015401" y="309.0" type="line"/>
      <point x="1011.7408318413904" y="253.0" type="line"/>
      <point x="1000.784735233429" y="214.0" type="line" smooth="yes"/>
      <point x="967.968853188828" y="96.0"/>
      <point x="740.5722333784912" y="-30.0"/>
      <point x="562.5722333784912" y="-30.0" type="qcurve" smooth="yes"/>
      <point x="348.57223337849126" y="-30.0"/>
      <point x="107.66716309399636" y="159.0"/>
    </contour>
    <contour>
      <point x="-7.899328808883595" y="685.0" type="line"/>
      <point x="-15.49845680492465" y="830.0" type="line"/>
      <point x="1027.5015431950753" y="830.0" type="line"/>
      <point x="1035.1006711911164" y="685.0" type="line"/>
    </contour>
  </outline>
</glyph>
<glyph name="hungarumlautcomb-stack.case" format="2">
  <anchor x="-38.30572663610877" y="1456" name="_top"/>
  <anchor x="-66.55351966966828" y="1995" name="top"/>
  <outline>
    <contour>
      <point x="-311.6824669341511" y="1654.0" type="line"/>
      <point x="-116.44870411110219" y="1993.0" type="line"/>
      <point x="50.73966603791894" y="1894.0" type="line"/>
      <point x="-181.5904079564516" y="1595.0" type="line"/>
    </contour>
    <contour>
      <point x="22.31753306584895" y="1654.0" type="line"/>
      <point x="217.5512958888978" y="1993.0" type="line"/>
      <point x="384.73966603791894" y="1894.0" type="line"/>
      <point x="152.4095920435484" y="1595.0" type="line"/>
    </contour>
  </outline>
</glyph>
<glyph name="hungarumlautcomb-stack" format="2">
  <anchor x="-17.132983805759913" y="1052" name="_top"/>
  <anchor x="-42.86520343373341" y="1543" name="top"/>
  <outline>
    <contour>
      <point x="-285.8680741715391" y="1295.0" type="line"/>
      <point x="-103.86520343373343" y="1543.0" type="line"/>
      <point x="38.794836728835094" y="1435.0" type="line"/>
      <point x="-183.83267516674485" y="1218.0" type="line"/>
    </contour>
    <contour>
      <point x="24.131925828460936" y="1295.0" type="line"/>
      <point x="206.13479656626657" y="1543.0" type="line"/>
      <point x="348.7948367288351" y="1435.0" type="line"/>
      <point x="126.16732483325515" y="1218.0" type="line"/>
    </contour>
  </outline>
</glyph>
<glyph name="one.prop" format="2">
  <advance width="736"/>
  <outline>
    <contour>
      <point x="431.0" y="0.0" type="line"/>
      <point x="365.75231479261305" y="1245.0" type="line"/>
      <point x="5.875520581484501" y="1090.0" type="line"/>
      <point x="-3.872326365161271" y="1276.0" type="line"/>
      <point x="515.6461177782304" y="1476.0" type="line"/>
      <point x="545.6461177782304" y="1476.0" type="line"/>
      <point x="623.0" y="0.0" type="line"/>
    </contour>
  </outline>
</glyph>
<glyph name="sha.bgr" format="2">
  <advance width="1764"/>
  <anchor x="1568.0" y="0" name="cy_descender"/>
  <outline>
    <contour>
      <point x="1598.86701619424" y="1052.0" type="line"/>
      <point x="1654.0" y="0.0" type="line"/>
      <point x="1486.0" y="0.0" type="line"/>
      <point x="1452.5397051115026" y="295.0" type="line"/>
      <point x="1412.86701619424" y="1052.0" type="line"/>
    </contour>
    <contour>
      <point x="802.5567138859915" y="371.0" type="qcurve" smooth="yes"/>
      <point x="766.8670161942401" y="1052.0" type="line"/>
      <point x="952.8670161942401" y="1052.0" type="line"/>
      <point x="988.5567138859915" y="371.0" type="line" smooth="yes"/>
      <point x="995.1600940756548" y="245.0"/>
      <point x="1108.8725420175062" y="136.0"/>
      <point x="1207.8725420175062" y="136.0" type="qcurve" smooth="yes"/>
      <point x="1298.8725420175062" y="136.0"/>
      <point x="1440.6884240621073" y="254.0"/>
      <point x="1532.5255670748195" y="467.0" type="qcurve"/>
      <point x="1541.906559566484" y="288.0" type="line"/>
      <point x="1475.2351442788654" y="110.0"/>
      <point x="1271.0481555856609" y="-20.0"/>
      <point x="1161.0481555856609" y="-20.0" type="qcurve" smooth="yes"/>
      <point x="1011.0481555856609" y="-20.0"/>
      <point x="813.4575319768642" y="163.0"/>
    </contour>
    <contour>
      <point x="868.9986185441834" y="229.0" type="line"/>
      <point x="849.8725420175064" y="136.0"/>
      <point x="671.0481555856609" y="-20.0"/>
      <point x="533.0481555856609" y="-20.0" type="qcurve" smooth="yes"/>
      <point x="361.0481555856608" y="-20.0"/>
      <point x="167.5623475354303" y="161.0"/>
      <point x="156.45189832742543" y="373.0" type="qcurve" smooth="yes"/>
      <point x="120.86701619424008" y="1052.0" type="line"/>
      <point x="306.8670161942401" y="1052.0" type="line"/>
      <point x="342.5567138859915" y="371.0" type="line" smooth="yes"/>
      <point x="349.1600940756548" y="245.0"/>
      <point x="462.8725420175063" y="136.0"/>
      <point x="572.8725420175064" y="136.0" type="qcurve" smooth="yes"/>
      <point x="683.8725420175064" y="136.0"/>
      <point x="826.3867339672757" y="317.0"/>
      <point x="856.5255670748195" y="467.0" type="qcurve"/>
    </contour>
  </outline>
</glyph>
<glyph name="six.prop" format="2">
  <advance width="1136"/>
  <outline>
    <contour>
      <point x="85.82162352021237" y="614.0" type="qcurve" smooth="yes"/>
      <point x="84.24939014172111" y="644.0" type="line" smooth="yes"/>
      <point x="64.33443401416525" y="1024.0"/>
      <point x="452.12203998539997" y="1486.0"/>
      <point x="832.1220399854" y="1486.0" type="qcurve" smooth="yes"/>
      <point x="852.1220399854" y="1486.0" type="line"/>
      <point x="860.4024691121206" y="1328.0" type="line"/>
      <point x="840.4024691121206" y="1328.0" type="line" smooth="yes"/>
      <point x="560.4024691121206" y="1328.0"/>
      <point x="253.38258959982608" y="1004.0"/>
      <point x="271.7253123488907" y="654.0" type="qcurve" smooth="yes"/>
      <point x="274.3457013130428" y="604.0" type="line" smooth="yes"/>
      <point x="287.9717239266337" y="344.0"/>
      <point x="483.29180425177066" y="128.0"/>
      <point x="623.2918042517706" y="128.0" type="qcurve" smooth="yes"/>
      <point x="763.2918042517706" y="128.0"/>
      <point x="908.0680350979553" y="304.0"/>
      <point x="899.6827904126686" y="464.0" type="qcurve" smooth="yes"/>
      <point x="891.2975457273819" y="624.0"/>
      <point x="728.1785921321327" y="798.0"/>
      <point x="588.1785921321327" y="798.0" type="qcurve" smooth="yes"/>
      <point x="458.1785921321327" y="798.0"/>
      <point x="267.29754572738193" y="624.0"/>
      <point x="275.6827904126686" y="464.0" type="qcurve"/>
      <point x="205.68279041266862" y="464.0" type="line"/>
      <point x="194.15307897039946" y="684.0"/>
      <point x="419.8981630054121" y="956.0"/>
      <point x="619.8981630054121" y="956.0" type="qcurve" smooth="yes"/>
      <point x="819.8981630054121" y="956.0"/>
      <point x="1078.1530789703995" y="684.0"/>
      <point x="1089.6827904126687" y="464.0" type="qcurve" smooth="yes"/>
      <point x="1101.2125018549377" y="244.0"/>
      <point x="841.5722333784912" y="-30.0"/>
      <point x="631.5722333784912" y="-30.0" type="qcurve" smooth="yes"/>
      <point x="421.57223337849126" y="-30.0"/>
      <point x="103.64026847644656" y="274.0"/>
    </contour>
  </outline>
</glyph>
<glyph name="soft.bgr" format="2">
  <advance width="1088"/>
  <outline>
    <contour>
      <point x="167.60486947165234" y="351.0" type="qcurve" smooth="yes"/>
      <point x="130.86701619424008" y="1052.0" type="line"/>
      <point x="316.8670161942401" y="1052.0" type="line"/>
      <point x="353.60486947165236" y="351.0" type="line" smooth="yes"/>
      <point x="358.7932396206735" y="252.0"/>
      <point x="477.5538431481859" y="123.0"/>
      <point x="617.5538431481858" y="123.0" type="qcurve" smooth="yes"/>
      <point x="759.5538431481858" y="123.0"/>
      <point x="866.7932396206735" y="252.0"/>
      <point x="861.6048694716524" y="351.0" type="qcurve" smooth="yes"/>
      <point x="856.5487432516642" y="447.476635514"/>
      <point x="744.9703424708171" y="573.0"/>
      <point x="613.9703424708171" y="573.0" type="qcurve" smooth="yes"/>
      <point x="251.9703424708171" y="573.0" type="line"/>
      <point x="244.37121447477602" y="718.0" type="line"/>
      <point x="606.371214474776" y="718.0" type="line" smooth="yes"/>
      <point x="809.371214474776" y="718.0"/>
      <point x="1038.6955469935351" y="521.0"/>
      <point x="1047.6048694716524" y="351.0" type="qcurve" smooth="yes"/>
      <point x="1056.7238230669016" y="177.0"/>
      <point x="838.5722333784912" y="-30.0"/>
      <point x="625.5722333784912" y="-30.0" type="qcurve" smooth="yes"/>
      <point x="414.57223337849126" y="-30.0"/>
      <point x="176.72382306690162" y="177.0"/>
    </contour>
  </outline>
</glyph>
<glyph name="tildecomb-stack.case" format="2">
  <anchor x="-38.30572663610877" y="1456" name="_top"/>
  <anchor x="-59.53087724574068" y="1861" name="top"/>
  <outline>
    <contour>
      <point x="-403.8793414704166" y="1715.0" type="line"/>
      <point x="-367.6527015787956" y="1787.0"/>
      <point x="-247.53087724574067" y="1861.0"/>
      <point x="-180.53087724574067" y="1861.0" type="qcurve" smooth="yes"/>
      <point x="-145.53087724574067" y="1861.0"/>
      <point x="-72.37790610151377" y="1839.0"/>
      <point x="-35.01530384015469" y="1813.0" type="qcurve" smooth="yes"/>
      <point x="-3.862332695927762" y="1791.0"/>
      <point x="63.97193957897869" y="1756.0"/>
      <point x="95.97193957897869" y="1756.0" type="qcurve" smooth="yes"/>
      <point x="135.9719395789787" y="1756.0"/>
      <point x="180.87562840765702" y="1796.0"/>
      <point x="199.83172501561842" y="1835.0" type="qcurve"/>
      <point x="298.6008329303752" y="1744.0" type="line"/>
      <point x="270.4790085973203" y="1670.0"/>
      <point x="160.35718426426536" y="1596.0"/>
      <point x="95.35718426426537" y="1596.0" type="qcurve" smooth="yes"/>
      <point x="46.35718426426537" y="1596.0"/>
      <point x="-37.47708801064108" y="1631.0"/>
      <point x="-68.52524359630192" y="1651.0" type="qcurve" smooth="yes"/>
      <point x="-100.62580696124581" y="1672.0"/>
      <point x="-165.56489479471833" y="1709.0"/>
      <point x="-189.56489479471833" y="1709.0" type="qcurve" smooth="yes"/>
      <point x="-225.56489479471833" y="1709.0"/>
      <point x="-283.6824669341511" y="1654.0"/>
      <point x="-301.11023355565976" y="1624.0" type="qcurve"/>
    </contour>
  </outline>
</glyph>
<glyph name="won.rvrn" format="2">
  <advance width="1796"/>
  <outline>
    <contour>
      <point x="511.52407779283044" y="-10.0" type="line"/>
      <point x="76.69427336389123" y="1456.0" type="line"/>
      <point x="250.69427336389123" y="1456.0" type="line"/>
      <point x="556.1898594310102" y="378.0" type="line"/>
      <point x="580.8980551792396" y="250.0" type="line"/>
      <point x="586.8980551792396" y="250.0" type="line"/>
      <point x="598.1898594310102" y="378.0" type="line" smooth="yes"/>
      <point x="759.6942733638912" y="1456.0" type="line"/>
      <point x="957.6942733638912" y="1456.0" type="line"/>
      <point x="1262.1898594310103" y="378.0" type="line"/>
      <point x="1286.8980551792395" y="250.0" type="line"/>
      <point x="1292.8980551792395" y="250.0" type="line"/>
      <point x="1304.1898594310103" y="378.0" type="line" smooth="yes"/>
      <point x="1466.6942733638912" y="1456.0" type="line"/>
      <point x="1628.6942733638912" y="1456.0" type="line"/>
      <point x="1387.5240777928304" y="-10.0" type="line"/>
      <point x="1209.5240777928304" y="-10.0" type="line"/>
      <point x="905.3514427886541" y="1100.0" type="line"/>
      <point x="877.6432470404247" y="1228.0" type="line"/>
      <point x="871.6432470404247" y="1228.0" type="line"/>
      <point x="857.3514427886541" y="1100.0" type="line" smooth="yes"/>
      <point x="689.5240777928304" y="-10.0" type="line"/>
    </contour>
    <contour>
      <point x="1448.225366261977" y="1007.0" type="line"/>
      <point x="1480.225366261977" y="1007.0" type="line"/>
      <point x="1479.7012884691464" y="1017.0" type="line"/>
      <point x="1732.5964729105804" y="1019.0" type="line"/>
      <point x="1739.7763386723573" y="882.0" type="line"/>
      <point x="1486.8811542309234" y="880.0" type="line"/>
      <point x="1486.619115334508" y="885.0" type="line"/>
      <point x="1454.619115334508" y="885.0" type="line"/>
    </contour>
    <contour>
      <point x="39.881154230923265" y="880.0" type="line"/>
      <point x="32.70128846914655" y="1017.0" type="line"/>
      <point x="297.70128846914656" y="1017.0" type="line"/>
      <point x="298.22536626197694" y="1007.0" type="line"/>
      <point x="328.22536626197694" y="1007.0" type="line"/>
      <point x="334.6191153345081" y="885.0" type="line"/>
      <point x="304.6191153345081" y="885.0" type="line"/>
      <point x="304.88115423092324" y="880.0" type="line"/>
    </contour>
    <contour>
      <point x="1393.8301279074567" y="652.0" type="line"/>
      <point x="1419.8301279074567" y="652.0" type="line"/>
      <point x="1419.5680890110416" y="657.0" type="line"/>
      <point x="1712.4632734524755" y="659.0" type="line"/>
      <point x="1719.6431392142522" y="522.0" type="line"/>
      <point x="1426.7479547728183" y="520.0" type="line"/>
      <point x="1426.2238769799878" y="530.0" type="line"/>
      <point x="1400.2238769799878" y="530.0" type="line"/>
    </contour>
    <contour>
      <point x="89.74795477281829" y="520.0" type="line"/>
      <point x="82.56808901104156" y="657.0" type="line"/>
      <point x="407.5680890110416" y="657.0" type="line"/>
      <point x="407.8301279074568" y="652.0" type="line"/>
      <point x="430.8301279074568" y="652.0" type="line"/>
      <point x="437.2238769799879" y="530.0" type="line"/>
      <point x="414.2238769799879" y="530.0" type="line"/>
      <point x="414.7479547728183" y="520.0" type="line"/>
    </contour>
  </outline>
</glyph>
